<?xml version="1.0" encoding="UTF-8" standalone="no"?>
<!DOCTYPE svg PUBLIC "-//W3C//DTD SVG 1.1//EN" "http://www.w3.org/Graphics/SVG/1.1/DTD/svg11.dtd">
<svg width="100%" height="100%" viewBox="0 0 331 80" version="1.1" xmlns="http://www.w3.org/2000/svg" xmlns:xlink="http://www.w3.org/1999/xlink" xml:space="preserve" xmlns:serif="http://www.serif.com/" style="fill-rule:evenodd;clip-rule:evenodd;stroke-linejoin:round;stroke-miterlimit:1.41421;">
    <g transform="matrix(1,0,0,1,31.2556,0)">
        <g>
            <g>
                <g transform="matrix(0.104963,0,0,0.104963,52.824,-67.6318)">
                    <path d="M859.135,1101.72C851.792,1101.72 834.482,1100.66 828.094,1082.49L780.5,946.156L722.788,1101.34L635.818,1101.34L712.115,896.183C721.596,870.687 748.462,849.515 775.076,849.515C775.631,849.515 786.838,849.516 787.382,849.516C787.651,849.517 800.62,849.55 805.624,849.518C810.627,849.487 829.128,847.822 837.951,871.3C839.902,876.493 842.555,884.399 842.555,884.399L885.084,1005.93L943.311,849.362L1026.7,849.362L949.898,1055.88C940.847,1080.21 912.662,1101.72 886.262,1101.72L859.135,1101.72ZM1116.19,849.362L1194.56,849.362L1100.58,1101.72L1022.21,1101.72L1116.19,849.362ZM398.229,1017.24L366.954,1101.34L275.688,1101.34L351.296,898.033C362.848,866.973 393.711,849.487 415.237,849.487L595.797,849.487C627.85,849.487 632.315,875.854 624.747,896.204L548.458,1101.34L462.203,1101.34L493.499,1017.19L398.229,1017.24ZM514.371,961.065L525.521,931.082C530.853,916.747 523.276,904.337 508.484,904.337C508.224,904.337 491.407,904.337 491.144,904.337C490.613,904.336 467.871,904.337 467.327,904.337C452.92,904.337 435.976,915.744 430.312,930.974L419.063,961.083L514.371,961.065ZM14.447,1101.34C-13.293,1101.34 -23.242,1079.48 -14.422,1055.77C-13.829,1054.17 14.155,978.922 14.765,977.286C15.29,975.873 44.634,896.966 45.149,895.585C56.431,865.248 89.352,849.106 108.285,849.106L305.075,849.106L284.735,903.798L156.466,903.798C141.676,903.798 124.14,917.928 119.464,930.503C118.206,933.883 102.477,976.542 102.477,976.542C102.477,976.542 86.684,1019.01 86.36,1019.88C79.109,1039.38 93.696,1047.14 103.158,1047.14L231.427,1047.14L211.271,1101.34L14.447,1101.34Z" style="fill:rgb(51,49,50);"/>
                </g>
                <g transform="matrix(0.104963,0,0,0.104963,52.824,-67.6318)">
                    <path d="M-103.123,1206.45L-77.692,1138.08L1333.52,1138.08C1354.22,1138.08 1366.3,1119.64 1369.77,1110.42C1370.07,1109.6 1377.28,1092.8 1380,1084.93C1382.73,1077.06 1384.36,1060.13 1367.71,1060.09C1351.06,1060.06 1254.05,1060.21 1233.89,1060.14C1213.73,1060.06 1200.17,1035.26 1207.84,1014.63C1207.99,1014.22 1251.47,893.806 1251.62,893.393C1259.67,871.759 1285.08,845.017 1318.37,845.017L1567.49,845.017L1541.59,914.661L1386.81,914.661C1371.72,914.661 1354.57,925.259 1348.04,942.813C1348.05,942.786 1337.87,969.985 1337.62,970.644C1333.88,980.714 1339.81,991.502 1351.27,991.448C1362.73,991.392 1469.56,991.863 1485.64,991.794C1501.73,991.728 1506.73,1002.39 1495.7,1034.15C1490.89,1048 1451.2,1157.72 1450.9,1158.52C1440.3,1187.02 1411.05,1206.45 1386.55,1206.45L-103.123,1206.45Z" style="fill:rgb(237,28,36);"/>
                </g>
                <g transform="matrix(0.104963,0,0,0.104963,52.824,-67.6318)">
                    <path d="M1614.07,882.801L1617.82,882.801C1622.2,882.801 1624.29,884.47 1624.92,888.225C1625.96,892.189 1626.59,895.318 1627.63,896.57L1636.18,896.57C1635.35,895.318 1634.72,893.232 1633.68,888.017C1632.64,883.427 1630.76,880.923 1627.42,879.672L1627.42,879.254C1631.59,878.003 1634.51,875.082 1634.51,871.327C1634.51,867.989 1633.05,865.276 1631.17,863.816C1628.67,862.356 1625.75,861.313 1619.28,861.313C1613.65,861.313 1609.27,861.73 1606.14,862.356L1606.14,896.57L1614.07,896.57L1614.07,882.801ZM1614.28,867.363C1615.11,867.154 1616.57,866.945 1618.66,866.945C1623.66,866.945 1625.96,869.032 1625.96,872.161C1625.96,875.708 1622.41,877.168 1618.03,877.168L1614.28,877.168L1614.28,867.363ZM1619.49,844.414C1599.88,844.414 1584.24,859.644 1584.24,878.628C1584.24,898.031 1599.88,913.26 1619.49,913.26C1639.31,913.26 1654.54,898.031 1654.54,878.628C1654.54,859.644 1639.31,844.414 1619.49,844.414ZM1619.49,851.299C1634.72,851.299 1645.78,863.607 1645.78,878.837C1645.78,893.858 1634.72,905.958 1619.7,905.958C1604.26,905.958 1593,893.858 1593,878.628C1593,863.607 1604.26,851.299 1619.49,851.299Z" style="fill:rgb(237,28,36);fill-rule:nonzero;"/>
                </g>
            </g>
        </g>
    </g>
</svg>
