<?xml version="1.0" encoding="utf-8"?>
<!-- Generator: Adobe Illustrator 19.0.0, SVG Export Plug-In . SVG Version: 6.00 Build 0)  -->
<svg version="1.0" xmlns="http://www.w3.org/2000/svg" xmlns:xlink="http://www.w3.org/1999/xlink" width="1213.3" height="266.1" x="0px" y="0px" viewBox="514 -170.1 1213.3 266.1" enable-background="new 514 -170.1 1213.3 266.1" xml:space="preserve">
<g id="SK">
	<g>
		<g id="g10" transform="matrix(2.18181 0 0 -2.18181 0.639266 628.156)">
			<g id="g12">
				<g>
					<g id="g14">
						<g id="g20">
							<path id="path22" fill="#F47216" d="M450.4,301.9c-1.4,1.9-3.3,3.2-5.9,4.1l-0.5,0.2v1.4l0.5,0.2c2.1,0.9,3.8,2.3,5,3.9
								c1.2,1.7,1.8,3.7,1.8,6.1c0,2.3-0.7,4.5-2,6.3c-1.3,1.9-3.2,3.4-5.6,4.5c-2.4,1.1-5.1,1.6-8.2,1.6h-0.4v-6.9
								c1.8-0.2,3.4-0.7,4.7-1.6c1.7-1.2,2.5-2.9,2.5-5.2c0-2.3-0.8-4.1-2.4-5.3c-1.3-1-2.9-1.6-4.8-1.8v-0.7c0-2.8,1.7-5.3,4.3-6.3
								c0.4-0.1,0.7-0.3,1.1-0.5c1.9-1,2.9-3,2.9-5.9c0-2.5-0.9-4.5-2.5-5.8c-1.4-1.1-3.4-1.7-5.8-1.8v-6.9h0.4
								c3.4,0,6.5,0.6,9.1,1.7c2.5,1.1,4.5,2.7,5.9,4.7c1.4,2,2.1,4.2,2.1,6.7C452.5,297.6,451.8,300,450.4,301.9L450.4,301.9
								L450.4,301.9z"/>
						</g>
						<g id="g24">
							<path id="path26" fill="#215D31" d="M431.2,329.4c-7.7-2.4-23-13.7-23-22.5c8.5,0,17.4,9.8,23,15.8L431.2,329.4L431.2,329.4z
								"/>
						</g>
						<g id="g28">
							<path id="path30" fill="#F47216" d="M485.3,328.1c-2.5,1.4-5.2,2.2-8.2,2.2h-1h-1c-3,0-5.7-0.7-8.2-2.2
								c-2.5-1.4-4.5-3.4-5.9-5.9c-1.4-2.5-2.2-5.3-2.2-8.3v-16c0-3,0.7-5.8,2.2-8.3c1.4-2.5,3.4-4.5,5.9-5.9c1.7-1,3.5-1.6,5.4-1.9
								v4c0,1.9-0.8,3.6-2.1,5l0,0c-1.6,1.6-2.4,3.6-2.4,6v18.4c0,2.3,0.8,4.3,2.4,6c1.6,1.6,3.6,2.4,5.9,2.4c2.3,0,4.3-0.8,5.9-2.4
								c1.6-1.6,2.4-3.6,2.4-6v-18.4c0-2.3-0.8-4.4-2.4-6l0,0c-1.3-1.3-2.1-3.1-2.1-5v-4c1.9,0.3,3.8,1,5.4,1.9
								c2.5,1.4,4.5,3.4,5.9,5.9c1.4,2.5,2.2,5.3,2.2,8.3v16c0,3-0.7,5.8-2.2,8.3C489.8,324.7,487.8,326.7,485.3,328.1"/>
						</g>
						<g id="g32">
							<path id="path34" fill="#1C5529" d="M431.2,281.6c-7.7,2.4-23,13.7-23,22.5c8.5,0,17.4-9.8,23-15.8L431.2,281.6L431.2,281.6z
								"/>
						</g>
						<g id="g36">
							<path id="path38" fill="#11501E" d="M640.6,330.3l10.6-45.1c0.5-2.4,2-3.5,4.4-3.5c2.4,0,3.9,1.2,4.4,3.5l10.6,45.1h-9.1
								l-8.1-35.1l1.4,13.4l-5.1,21.7H640.6z M628.7,317.7c0,1-0.4,1.9-1.1,2.6c-0.7,0.7-1.6,1.1-2.6,1.1c-0.3,0-0.5,0-0.7-0.1
								c0.5,1.3,1.5,2.6,2.9,4c1.5,1.4,2.9,2.3,4.4,2.9c-2.4-0.2-4.7-1.3-6.8-3.4c-2.3-2.1-3.4-4.5-3.4-7.1v-23.5
								c0-1,0.4-1.9,1.1-2.6c0.7-0.7,1.6-1.1,2.6-1.1c0.3,0,0.5,0,0.7,0.1c-0.5-1.3-1.5-2.6-2.9-4c-1.5-1.4-2.9-2.3-4.4-2.9
								c2.4,0.2,4.7,1.3,6.8,3.4c2.3,2.1,3.4,4.5,3.4,7.1V317.7L628.7,317.7z M625,330.3c3.5,0,6.4-1.2,8.9-3.7
								c2.5-2.4,3.7-5.4,3.7-8.9v-23.5c0-3.5-1.2-6.5-3.7-8.9c-2.5-2.5-5.4-3.7-8.9-3.7c-3.5,0-6.5,1.2-8.9,3.7
								c-2.5,2.4-3.7,5.4-3.7,8.9v23.5c0,3.5,1.2,6.5,3.7,8.9C618.5,329,621.5,330.3,625,330.3 M580.5,330.3h8.9v-18
								c-1.9-1.8-4.4-2.8-7.3-3c5.3-0.8,9.6,1.3,12.7,6.3c2.6,4.2,3.9,9,3.8,14.7h8.2c0.2-5.7-0.5-10.4-2.1-14.1c-1.3-3-3.3-5.7-6-8
								c1.9-1,3.6-2.5,5.1-4.7c1.4-2,2.3-4.2,2.7-6.6c-2.1,2-4.8,3.4-8.2,4.1c-0.5,0.1-2,0.3-4.4,0.5c3.3-0.3,6.1-1.4,8.7-3.3
								c2.6-2,4-4.4,4.2-7.1l0.1-9.5h-8.9v13.5c0,1.5-0.6,2.9-1.8,4.3c-1.2,1.4-2.5,2.1-3.9,2.1h-2.7v-19.9h-8.9V330.3L580.5,330.3z
								 M566.1,317.7c0,1-0.4,1.9-1.1,2.6c-0.7,0.7-1.6,1.1-2.6,1.1c-0.3,0-0.5,0-0.7-0.1c0.5,1.3,1.5,2.6,2.9,4
								c1.5,1.4,2.9,2.3,4.4,2.9c-2.4-0.2-4.7-1.3-6.8-3.4c-2.3-2.1-3.4-4.5-3.4-7.1v-23.5c0-1,0.4-1.9,1.1-2.6
								c0.7-0.7,1.6-1.1,2.6-1.1c0.3,0,0.5,0,0.7,0.1c-0.5-1.3-1.5-2.6-2.9-4c-1.5-1.4-2.9-2.3-4.4-2.9c2.4,0.2,4.7,1.3,6.8,3.4
								c2.3,2.1,3.4,4.5,3.4,7.1V317.7L566.1,317.7z M562.4,330.3c3.5,0,6.4-1.2,8.9-3.7c2.5-2.4,3.7-5.4,3.7-8.9v-23.5
								c0-3.5-1.2-6.5-3.7-8.9c-2.5-2.5-5.4-3.7-8.9-3.7c-3.5,0-6.5,1.2-8.9,3.7c-2.5,2.4-3.7,5.4-3.7,8.9v23.5
								c0,3.5,1.2,6.5,3.7,8.9C556,329,559,330.3,562.4,330.3 M527,306.3h3.3c1.4,0,2.6,0.5,3.6,1.5c1,1,1.5,2.2,1.5,3.6v4.9
								c0,1.4-0.5,2.6-1.5,3.6c-1,1-2.2,1.5-3.6,1.5H527V306.3z M544.4,311.4c0-3.1-1.2-6.2-3.5-9.2c-2.2-2.9-4.9-4.9-7.9-5.8
								c2.7,0.5,5.1,1.4,7.3,3c0.2,0.1,0.4,0.3,0.5,0.4c0.9-1.6,1.6-3.3,1.8-5.1l1.8-13.1h-8.8l-1.8,12.5c-0.2,1.1-0.8,2-1.7,2.7
								c-0.9,0.7-1.9,1.1-3.1,1.1H527v-16.3h-8.9v48.7h9.4c1.7-1,3.3-2.5,4.8-4.6c1.5-2.1,2.4-4.2,2.7-6.1
								c-0.2,4.2-1.7,7.7-4.4,10.7c3.8-0.1,7.1-1.5,9.8-4.2c2.7-2.7,4-6,4-9.8V311.4L544.4,311.4z"/>
						</g>
						<g id="g40">
							<path id="path42" fill="#11501E" d="M670.5,252.7l0,15.8h-2.4l-6.2-10.5l-6.3,10.5h-2.4v-15.8h2.8V263l5.2-8.5h1.3l5.2,8.7
								l0-10.5H670.5L670.5,252.7z M641.5,255c-3.2,0-5.6,2.3-5.6,5.6c0,3.2,2.4,5.6,5.6,5.6c3.2,0,5.6-2.3,5.6-5.6
								C647.1,257.3,644.7,255,641.5,255 M641.5,252.4c4.9,0,8.5,3.4,8.5,8.1c0,4.7-3.6,8.1-8.5,8.1c-4.9,0-8.5-3.5-8.5-8.1
								C633,255.9,636.6,252.4,641.5,252.4 M625.4,252.4c2.6,0,4.8,0.9,6.3,2.6l-1.9,1.8c-1.2-1.3-2.6-1.9-4.2-1.9
								c-3.3,0-5.6,2.3-5.6,5.6c0,3.3,2.4,5.6,5.6,5.6c1.7,0,3.1-0.6,4.2-1.9l1.9,1.8c-1.5,1.7-3.7,2.6-6.3,2.6
								c-4.9,0-8.5-3.4-8.5-8.1C616.9,255.8,620.6,252.4,625.4,252.4 M602.3,255.1V266h3.8c3.5,0,5.8-2.1,5.8-5.4
								c0-3.3-2.3-5.4-5.8-5.4H602.3z M599.4,252.7h6.9c5.1,0,8.6,3.2,8.6,7.9c0,4.7-3.5,7.9-8.6,7.9h-6.9V252.7z M593.2,262.8
								c0-2-1.3-3.2-3.9-3.2h-3.4v6.3h3.4C591.8,266,593.2,264.8,593.2,262.8 M596.4,252.7l-3.6,5.2c2.1,0.8,3.4,2.6,3.4,5
								c0,3.5-2.6,5.6-6.7,5.6h-6.5v-15.8h2.9v4.6h3.6c0.2,0,0.4,0,0.6,0l3.2-4.6H596.4L596.4,252.7z M573.6,252.4
								c4.3,0,6.4,2.2,6.4,4.7c0,5.8-9.4,3.6-9.4,7c0,1.2,1,2.1,3.4,2.1c1.4,0,2.9-0.4,4.4-1.2l0.9,2.3c-1.4,0.9-3.4,1.4-5.3,1.4
								c-4.3,0-6.4-2.2-6.4-4.7c0-5.9,9.4-3.6,9.4-7c0-1.2-1-2.1-3.5-2.1c-1.9,0-4,0.7-5.2,1.7l-1-2.3
								C568.6,253.2,571.1,252.4,573.6,252.4 M558.2,252.7l0,15.8h-2.4l-6.2-10.5l-6.3,10.5h-2.4v-15.8h2.8V263l5.2-8.5h1.3l5.2,8.7
								l0-10.5H558.2L558.2,252.7z M539.2,268.5h-2.9l-4.7-7.7l-4.6,7.7h-3.1l6.2-10.3v-5.5h2.9v5.6L539.2,268.5L539.2,268.5z
								 M536,272.9h-3.3l-3.1-3.1h2.4L536,272.9L536,272.9z M519,268.5v-10.7l-8.7,10.7h-2.4v-15.8h2.9v10.7l8.7-10.7h2.4v15.8H519z
								 M495.6,255.1v4.4h7.6v2.4h-7.6v4.1h8.6v2.5h-11.5v-15.8h11.9v2.5H495.6z M479.2,252.7h11.2v2.5h-8.3v13.3h-2.9V252.7z
								 M467,255.1v4.4h7.6v2.4H467v4.1h8.6v2.5H464v-15.8h11.9v2.5H467L467,255.1z M451.7,255.1l9.3,11.4v2h-13V266h9.2l-9.3-11.4
								v-2h13.5v2.5H451.7L451.7,255.1z M431.2,255c-3.2,0-5.6,2.3-5.6,5.6c0,3.2,2.4,5.6,5.6,5.6c3.2,0,5.6-2.3,5.6-5.6
								C436.7,257.3,434.4,255,431.2,255 M431.2,252.4c4.9,0,8.5,3.4,8.5,8.1c0,4.7-3.6,8.1-8.5,8.1c-4.9,0-8.5-3.5-8.5-8.1
								C422.6,255.9,426.3,252.4,431.2,252.4 M414.5,252.4c4.3,0,6.4,2.2,6.4,4.7c0,5.8-9.4,3.6-9.4,7c0,1.2,1,2.1,3.4,2.1
								c1.4,0,2.9-0.4,4.4-1.2l0.9,2.3c-1.4,0.9-3.4,1.4-5.3,1.4c-4.3,0-6.4-2.2-6.4-4.7c0-5.9,9.4-3.6,9.4-7c0-1.2-1-2.1-3.5-2.1
								c-1.9,0-4,0.7-5.2,1.7l-1-2.3C409.5,253.2,412,252.4,414.5,252.4"/>
						</g>
						<g id="g44">
							<path id="path46" fill="#1C5529" d="M386.5,294.8c0-2.2-2.8-8.2-9.2-14.8c-6.2-6.4-12.2-10.6-19.3-12.3v0.7
								c0,0.7-0.2,2.4-0.2,5c0,6.9,2.6,18.3,7.8,34.3C379.3,305.1,386.5,299.9,386.5,294.8 M382.4,264.2c10.6,13.6,16,29.3,16,42.1
								c0,19.1-11,23.7-41,24.4l-2.7-5.4c-1.9-0.1-3.8-0.3-6-0.6l-6.3-13.2c2.4-0.2,4.8-0.6,7-0.9c-6.7-14.5-9.8-25-9.8-31.1
								c0-8,4-14,12.2-20c5.7-4.2,10.8-5.9,13.7-5.9C371.4,253.7,377.1,257.2,382.4,264.2"/>
						</g>
						<g id="g48">
							<path id="path50" fill="#11501E" d="M280.8,291.2l6.3,26.3h1.7c9.4,0,16.7-2.6,21.5-7C310.3,310.5,280.8,291.2,280.8,291.2z
								 M326.4,282.7c-1.5,1.4-8.1,2.7-19.9,3.5c9.6,3.9,17,7.7,22.1,12.1l1.7,12.8c-11.3,14.5-27.2,22.2-46.6,22.2
								c-3.8,0-7.8-0.3-11.6-1.1c0.5-12.3-0.9-14.8,5.6-14.9c-2.7-10-5.1-20.9-7.1-32.7c-1.4-0.1-2.4-3.1-2.4-7.2
								c0-0.8,0.8-1.5,2.2-2.7v-2.6c0-4.3,0.5-8.6,1.6-12.9l4.9,2.5c0.8,3.8,1.5,8.2,2.2,13c6.5,0.8,12.1,1.2,16.8,1.2
								c7.8,0,14.3-0.6,19.9-2.6c-3.5-3-10.9-6.1-21.8-7.7c0,1.5-0.5,2.4-1.1,2.4c-4.5,0-12-8.2-12-10.8c0-0.8,1.6-1.4,4.8-1.4
								c7.3,0,19.3,2,31.9,6.9c10.1,3.8,14.3,9,14.3,10.4C331.8,274.1,329.6,279.5,326.4,282.7"/>
						</g>
						<g id="g52">
							<path id="path54" fill="#1C5529" d="M268.3,347.4c0,5.5-4.5,10-10,10c-5.5,0-10-4.5-10-10c0-5.5,4.5-10,10-10
								C263.9,337.4,268.3,341.9,268.3,347.4"/>
						</g>
						<g id="g56">
							<path id="path58" fill="#1C5529" d="M250.7,331.1c-2.8,0-3-0.6-4.7-3.2c-3.9-6.2-7.9-14-10.8-22.1l4.8-11.7
								c-3.1-13.6-4.4-22.4-4.4-26.2c0-9.4,5.9-15.2,10.8-15.2h0.8c8.1,37.2,16.5,57.6,16.5,61.4c0,1.5-2.3,9-7,15.6
								c-0.9,1.3-1.7,1.4-3.5,1.4C253.3,331.1,250.7,331.1,250.7,331.1z"/>
						</g>
					</g>
				</g>
			</g>
		</g>
	</g>
	<g id="g12_1_" display="none">
		<g display="inline">
			<g id="g14_1_">
				<g id="g20_1_" transform="translate(471.2979,136.2344)">
					<path id="path22_1_" fill="#F47216" d="M869-165.2c-3.6-4.8-8.5-8.3-15-10.4l-1.4-0.5v-3.7l1.2-0.5c5.3-2.4,9.6-5.7,12.7-10
						c3-4.2,4.6-9.4,4.6-15.5c0-6-1.7-11.4-5.1-16.1c-3.4-4.8-8.2-8.7-14.1-11.4c-6-2.8-13-4.2-20.8-4.2h-0.9v17.7
						c4.7,0.4,8.7,1.8,12,4.1c4.2,3,6.4,7.4,6.4,13.1c0,5.8-2,10.4-6,13.5c-3.3,2.6-7.4,4.2-12.2,4.5v1.7c0,7.1,4.4,13.5,11,16
						c1,0.4,1.9,0.8,2.7,1.2c4.9,2.5,7.4,7.6,7.4,15c0,6.4-2.2,11.4-6.5,14.6c-3.6,2.7-8.6,4.3-14.7,4.7v17.6h0.9
						c8.8,0,16.5-1.5,23-4.3c6.4-2.9,11.5-6.9,15-12c3.5-5,5.2-10.8,5.2-17.1C874.4-154.5,872.6-160.5,869-165.2L869-165.2z"/>
				</g>
				<g id="g24_1_" transform="translate(446.8525,171.2568)">
					<path id="path26_1_" fill="#11501E" d="M844.7-270.1c-19.5,6.1-58.4,34.8-58.4,57.3c21.6,0,44.2-25,58.4-40V-270.1z"/>
				</g>
				<g id="g28_1_" transform="translate(515.7607,169.6846)">
					<path id="path30_1_" fill="#F47216" d="M913.2-265.4c-6.3-3.7-13.3-5.5-20.9-5.5h-2.5h-2.5c-7.6,0-14.6,1.9-20.9,5.5
						c-6.3,3.7-11.3,8.7-15,15c-3.7,6.3-5.5,13.4-5.5,21.1v40.7c0,7.7,1.9,14.8,5.5,21.1c3.7,6.3,8.7,11.3,15,14.9
						c4.3,2.4,8.9,4.1,13.8,4.9v-10.1c0-4.8-2.1-9.2-5.4-12.6l-0.1-0.1c-4-4.1-6.1-9.2-6.1-15.2v-46.7c0-6,2.1-11.1,6.1-15.2
						c4.1-4.1,9.1-6.2,15.1-6.2c6,0,11,2.1,15.1,6.2c4,4.1,6.1,9.2,6.1,15.2v46.7c0,6-2.1,11.1-6.1,15.2l0,0.1
						c-3.4,3.4-5.4,7.8-5.4,12.6v10.1c4.9-0.8,9.6-2.4,13.8-4.9c6.3-3.6,11.3-8.6,15-14.9c3.7-6.3,5.5-13.4,5.5-21.1v-40.7
						c0-7.7-1.9-14.8-5.5-21.1C924.6-256.7,919.5-261.7,913.2-265.4"/>
				</g>
				<g id="g32_1_" transform="translate(446.8525,110.4111)">
					<path id="path34_1_" fill="#11501E" d="M844.7-87.9c-19.5-6.1-58.4-34.8-58.4-57.3c21.6,0,44.2,25,58.4,40V-87.9z"/>
				</g>
				<g id="g36_1_" transform="translate(662.9951,172.4229)">
					<path id="path38_1_" fill="#11501E" d="M1059.6-273.6v22.6H1040v101.1h-22.5v-97.8l14.3-3.3h-33.9v-22.6H1059.6z M984.2-172.5
						v22.6h-36.4c-6.7,0-12.3-2.4-17-7.1c-4.7-4.7-7.1-10.3-7.1-17v-20c1.3,6,3.6,10.9,7,14.6c4.6,5.1,11,7.4,19,6.9H984.2z
						 M984.2-273.6v22.6h-37.9v24.4h27.1v22.6h-27.1v26.9H945c-4.8-0.2-9.3-2.3-13.4-6.4c-3.7-3.7-6.4-8.3-7.9-13.6v-52.4
						c0-6.7,2.4-12.3,7.1-17c4.7-4.7,10.3-7.1,17-7.1H984.2z M870.8-176.9c-4.8-0.2-9.3-2.3-13.4-6.5c-3.7-3.8-6.4-8.4-7.9-13.7
						v-76.5h22.6v96.7H870.8z M873.5-149.9c-6.7,0-12.3-2.4-17-7.1c-4.7-4.7-7.1-10.3-7.1-17v-20c1.3,5.9,3.6,10.6,6.7,14.2
						c4.5,5.1,10.5,7.5,18.1,7.3h35.6v22.5H873.5z"/>
				</g>
				<g id="g40_1_" transform="translate(662.2012,73.5264)">
					<path id="path42_1_" fill="#11501E" d="M1058.8,22.5l0-30.2h-4.6l-11.8,20l-12-20h-4.6v30.2h5.4V2.7l9.9,16.3h2.5l9.9-16.6
						l0,20H1058.8z M1002.4,17.8V9.5h14.6V4.9h-14.6V-3h16.5v-4.7h-22.1v30.2h22.7v-4.7H1002.4z M979.4,23c5,0,9.2-1.8,12-5.1
						l-3.6-3.5c-2.2,2.4-4.9,3.6-8.1,3.6c-6.3,0-10.8-4.4-10.8-10.6c0-6.2,4.5-10.6,10.8-10.6c3.2,0,5.9,1.2,8.1,3.5l3.6-3.4
						c-2.8-3.3-7-5.1-12-5.1c-9.3,0-16.2,6.5-16.2,15.6C963.2,16.4,970.1,23,979.4,23 M935.3,17.8V-3h7.3c6.7,0,11.1,4.1,11.1,10.4
						c0,6.3-4.4,10.4-11.1,10.4L935.3,17.8z M929.7,22.5h13.2c9.8,0,16.5-6,16.5-15.1c0-9.1-6.7-15.1-16.5-15.1h-13.2V22.5z
						 M917.7,3c0,3.8-2.5,6-7.5,6h-6.6V-3h6.6C915.2-3,917.7-0.8,917.7,3 M923.9,22.5l-7-9.9c4.1-1.6,6.4-5,6.4-9.5
						c0-6.7-4.9-10.8-12.9-10.8h-12.4v30.2h5.6v-8.8h6.8c0.4,0,0.8,0,1.2,0l6.2,8.9H923.9z M880.3,23c8.3,0,12.2-4.1,12.2-9
						c0-11.1-17.9-6.9-17.9-13.3c0-2.3,1.9-4.1,6.6-4.1c2.6,0,5.6,0.8,8.3,2.4l1.8-4.4c-2.6-1.7-6.4-2.7-10.1-2.7
						c-8.3,0-12.2,4.1-12.2,9c0,11.2,18,7,18,13.5c0,2.2-2,3.9-6.7,3.9c-3.7,0-7.6-1.4-10-3.3l-1.9,4.4
						C870.9,21.5,875.6,23,880.3,23 M850.8,22.5l0-30.2h-4.6l-11.8,20l-12-20h-4.6v30.2h5.4V2.7l9.9,16.3h2.5l9.9-16.6l0,20H850.8z
						 M814.5-7.7H809L800,7l-8.9-14.7h-6L797,11.9v10.6h5.6V11.9L814.5-7.7z M808.4-16.1H802l-5.8,5.9h4.7L808.4-16.1z M775.9-7.7
						v20.5L759.2-7.7h-4.6v30.2h5.6V2.1l16.7,20.5h4.6V-7.7H775.9z M731.3,17.8V9.5h14.6V4.9h-14.6V-3h16.5v-4.7h-22.1v30.2h22.7
						v-4.7H731.3z M699.8,22.5h21.4v-4.8h-15.8V-7.7h-5.6L699.8,22.5z M676.4,17.8V9.5h14.6V4.9h-14.6V-3h16.5v-4.7h-22.1v30.2h22.7
						v-4.7H676.4z M647.3,17.8L665.1-4v-3.8h-24.9V-3h17.5l-17.8,21.7v3.8h25.8v-4.8H647.3z M606.9,17.8V9.5h14.6V4.9h-14.6V-3h16.5
						v-4.7h-22.1v30.2H624v-4.7H606.9z M583.5,23c8.3,0,12.2-4.1,12.2-9c0-11.1-17.9-6.9-17.9-13.3c0-2.3,1.9-4.1,6.6-4.1
						c2.6,0,5.6,0.8,8.3,2.4l1.8-4.4c-2.6-1.7-6.4-2.7-10.1-2.7c-8.3,0-12.2,4.1-12.2,9c0,11.2,18,7,18,13.5c0,2.2-2,3.9-6.7,3.9
						c-3.7,0-7.6-1.4-10-3.3l-1.9,4.4C574.1,21.5,578.8,23,583.5,23"/>
				</g>
				<g id="g44_1_" transform="translate(244.543,88.1934)">
					<path id="path46_1_" fill="#11501E" d="M643.5-21.4c26.9-34.6,40.8-74.5,40.8-107c0-48.5-28.1-60.3-104.1-62.1l-6.8,13.6
						c-4.7,0.3-9.7,0.9-15.3,1.5L542-142c6.2,0.6,12.1,1.5,17.7,2.3c-17.1,37-24.9,63.6-24.9,78.9c0,20.4,10.1,35.5,31.1,50.9
						c14.5,10.6,27.5,15.1,34.9,15.1C615.4,5.2,629.8-3.7,643.5-21.4 M653.9-99.1c0,5.6-7.1,21-23.4,37.5
						c-15.6,16.3-31,26.9-49,31.4V-32c0-1.8-0.6-6.2-0.6-12.7c0-17.4,6.5-46.4,19.8-87.2C635.5-125.4,653.9-112.2,653.9-99.1
						 M501-68.4c-3.9-3.6-20.7-6.8-50.6-8.9c24.5-10,43.1-19.5,56.2-30.7l4.4-32.5c-28.7-37-69.2-56.5-118.6-56.5
						c-9.7,0-19.8,0.9-29.6,2.7c1.2,31.3-2.3,37.6,14.2,37.9c-6.8,25.4-13,53.2-18.1,83.1c-3.5,0.3-6.2,8-6.2,18.3
						c0,2.1,2.1,3.9,5.6,6.8v6.5c0,10.9,1.2,21.9,4.2,32.8l12.4-6.2c2.1-9.7,3.9-21,5.6-33.1c16.6-2.1,30.8-3,42.6-3
						c19.8,0,36.4,1.5,50.6,6.5c-8.9,7.7-27.8,15.4-55.3,19.5c0-3.9-1.2-6.2-2.7-6.2c-11.5,0-30.4,21-30.4,27.5
						c0,2.1,4.1,3.6,12.1,3.6c18.6,0,49.1-5,81-17.4c25.7-9.8,36.3-22.8,36.3-26.3C514.8-46.5,509.2-60.4,501-68.4 M385-90l16-66.8
						h4.4c23.9,0,42.6,6.5,54.7,17.7L385-90z M353.5-232.9c0-14.1-11.4-25.4-25.4-25.4c-14,0-25.4,11.4-25.4,25.4
						c0,14,11.4,25.4,25.4,25.4C342.1-207.5,353.5-218.8,353.5-232.9 M308.7-191.4c-7.1,0-7.7,1.5-11.8,8
						c-10,15.6-20.1,35.5-27.5,56.2l12.1,29.9c-8,34.6-11.2,57.1-11.2,66.5c0,23.9,15.1,38.7,27.5,38.7h2.1
						c20.7-94.6,42-146.4,42-156.1c0-3.9-5.9-22.8-17.7-39.7c-2.3-3.3-4.4-3.6-8.8-3.6L308.7-191.4z"/>
				</g>
				<g id="g48_1_" transform="translate(349.5703,172.4492)">
					<path id="path50_1_" fill="#11501E" d="M747.9-273.7h88.4c5,0,9.3,1.7,12.8,5.2c3.5,3.5,5.2,7.8,5.2,12.8
						c0,2.4-0.5,4.8-1.5,7.1L780.7-84l18.1-28.4h55.5v36.1H766c-4.9,0-9.2-1.7-12.8-5.2c-3.5-3.6-5.3-7.8-5.3-12.8
						c0-2.5,0.5-4.8,1.5-7.1L822.8-266l-18.2,28.3h-56.7V-273.7z M672.9-273.7c11.8,0,22.6,3.3,32.4,10.1
						c9.4,6.6,16.3,15.2,20.5,25.8l-29.5,16.1c-4-5.7-7.2-9.4-9.4-11.1c-3.9-3.1-8.5-4.7-13.9-4.8c-3,0-5.9,0.6-8.6,1.8
						c3.4-8.4,8.8-15.6,16.2-21.5c6.6-5.1,11.6-8.3,14.7-9.5c-8.7,2-16.3,5.5-22.8,10.6c-11.6,9-18.1,20.5-19.7,34.5
						c-0.4,3.4-0.6,5-0.6,4.8v83.7c0,5.8,2,10.7,6.1,14.7c4.1,4.1,9,6.2,14.7,6.1c2.3,0,4.4-0.2,6.3-0.8c-3.8,6.2-8.5,11.5-14,16.1
						c-8.2,6.8-14.4,11-18.4,12.6c11.6-2.8,21.7-8.1,30.4-15.7c8.7-7.7,15.1-17.1,19-28.2l29.5,16.1c-4.2,10.7-11,19.3-20.5,25.9
						c-9.7,6.7-20.5,10.1-32.4,10.1c-15.7,0-29.1-5.5-40.2-16.6c-11.1-11.1-16.7-24.5-16.7-40.2v-83.7c0-15.7,5.6-29.1,16.7-40.2
						C643.8-268.1,657.2-273.7,672.9-273.7"/>
				</g>
			</g>
		</g>
	</g>
	<g id="g10_1_" transform="matrix(1.3333333,0,0,-1.3333333,0,304.35733)" display="none">
		<g id="g12_2_" display="inline">
			<g>
				<g id="g14_2_">
					<g id="g20_2_" transform="translate(461.3955,109.5011)">
						<path id="path22_2_" fill="#F47216" d="M544.7,140.4c-2.7,3.6-6.4,6.2-11.2,7.8l-1,0.3v2.7l0.9,0.4c4,1.8,7.2,4.3,9.5,7.5
							c2.3,3.2,3.4,7.1,3.4,11.6c0,4.5-1.3,8.5-3.8,12.1c-2.6,3.6-6.1,6.5-10.6,8.6c-4.5,2.1-9.8,3.1-15.6,3.1h-0.7v-13.3
							c3.5-0.3,6.5-1.3,9-3.1c3.2-2.2,4.8-5.5,4.8-9.9c0-4.4-1.5-7.8-4.5-10.2c-2.5-2-5.6-3.1-9.2-3.4v-1.3c0-5.3,3.3-10.1,8.3-12
							c0.7-0.3,1.4-0.6,2-0.9c3.7-1.9,5.6-5.7,5.6-11.3c0-4.8-1.6-8.5-4.9-11c-2.7-2.1-6.4-3.2-11.1-3.5v-13.2h0.7
							c6.6,0,12.4,1.1,17.3,3.3c4.8,2.2,8.6,5.2,11.2,9c2.6,3.8,3.9,8.1,3.9,12.9C548.7,132.3,547.4,136.8,544.7,140.4L544.7,140.4z
							"/>
					</g>
					<g id="g24_2_" transform="translate(436.9502,144.5241)">
						<path id="path26_2_" fill="#11501E" d="M532.5,157.8c-14.6-4.6-43.9-26.2-43.9-43c16.2,0,33.2,18.7,43.9,30.1V157.8z"/>
					</g>
					<g id="g28_2_" transform="translate(505.8584,142.9518)">
						<path id="path30_2_" fill="#F47216" d="M566.8,157c-4.7,2.8-10,4.1-15.7,4.1h-1.9h-1.9c-5.7,0-11-1.4-15.7-4.1
							c-4.7-2.8-8.5-6.5-11.3-11.3c-2.7-4.7-4.1-10-4.1-15.8V99.3c0-5.8,1.4-11.1,4.1-15.8c2.8-4.7,6.5-8.5,11.3-11.2
							c3.2-1.8,6.7-3.1,10.4-3.7v7.6c0,3.6-1.6,6.9-4.1,9.5l0,0c-3,3.1-4.6,6.9-4.6,11.4v35.1c0,4.5,1.5,8.3,4.6,11.4
							c3,3.1,6.9,4.7,11.3,4.7s8.3-1.6,11.3-4.7c3-3.1,4.6-6.9,4.6-11.4V97.2c0-4.5-1.5-8.3-4.6-11.4l0,0c-2.5-2.5-4.1-5.9-4.1-9.5
							v-7.6c3.7,0.6,7.2,1.8,10.4,3.7c4.7,2.7,8.5,6.5,11.3,11.2c2.7,4.7,4.1,10,4.1,15.8v30.6c0,5.8-1.4,11.1-4.1,15.8
							C575.4,150.5,571.6,154.3,566.8,157"/>
					</g>
					<g id="g32_2_" transform="translate(436.9502,83.6779)">
						<path id="path34_2_" fill="#11501E" d="M532.5,127.5c-14.6,4.6-43.9,26.2-43.9,43c16.2,0,33.2-18.7,43.9-30.1V127.5z"/>
					</g>
					<g id="g36_2_" transform="translate(581.9141,145.6906)">
						<path id="path38_2_" fill="#11501E" d="M604.7,158.4l20.1-86.1c1-4.5,3.9-6.7,8.5-6.7c4.6,0,7.4,2.3,8.4,6.7l20.1,86.1h-17.4
							l-15.4-67l2.7,25.6l-9.8,41.4H604.7z M598.9,82.5v-17h-27.3c-5,0-9.3,1.8-12.8,5.3c-3.6,3.5-5.3,7.8-5.3,12.8v15
							c1-4.5,2.7-8.2,5.3-10.9c3.5-3.8,8.2-5.5,14.2-5.2L598.9,82.5z M598.9,158.4v-17h-28.4v-18.4h20.3v-17h-20.3V85.9h-1
							c-3.6,0.1-7,1.7-10,4.8c-2.8,2.8-4.8,6.2-6,10.2v39.4c0,5,1.8,9.3,5.3,12.8c3.5,3.5,7.7,5.3,12.8,5.3H598.9z M595.1,183
							l-18.5-17.1h-11.1l9.6,17.1H595.1z"/>
					</g>
					<g id="g40_2_" transform="translate(606.8506,47.0382)">
						<path id="path42_2_" fill="#11501E" d="M617.1,109.3h19.8v4.4h-14.6v23.5h-5.2V109.3z M593.6,113.6v7.7h13.5v4.3h-13.5v7.3
							h15.2v4.3h-20.4v-27.9h20.9v4.3H593.6z M578.3,137.2l-9.4-21.5l-9.3,21.5H554l12.2-27.9h5.1l12.2,27.9H578.3z M547.2,137.2
							l-9.4-21.5l-9.3,21.5h-5.6l12.2-27.9h5.1l12.2,27.9H547.2z M512.3,109.3h5.2v27.9h-5.2V109.3z M511.5,139.5h4.3l6.9,5.5h-5.9
							L511.5,139.5z M488.6,113.7l16.4,20.1v3.5h-23v-4.4h16.2l-16.4-20.1v-3.5h23.8v4.4H488.6z M465.4,108.9
							c7.7,0,11.3,3.8,11.3,8.3c0,10.2-16.6,6.4-16.6,12.3c0,2.1,1.8,3.8,6.1,3.8c2.4,0,5.2-0.7,7.7-2.2l1.6,4
							c-2.4,1.6-5.9,2.5-9.3,2.5c-7.7,0-11.3-3.8-11.3-8.3c0-10.4,16.6-6.4,16.6-12.4c0-2.1-1.8-3.6-6.2-3.6c-3.4,0-7,1.3-9.2,3.1
							l-1.8-4C456.7,110.2,461,108.9,465.4,108.9 M416,113.7v19.2h6.8c6.2,0,10.3-3.8,10.3-9.6c0-5.8-4-9.6-10.3-9.6H416z
							 M410.8,109.3H423c9.1,0,15.2,5.6,15.2,14s-6.2,14-15.2,14h-12.2V109.3z M384.9,109.3h19.8v4.4h-14.6v23.5h-5.2L384.9,109.3z
							 M362.3,113.4c-5.6,0-9.8,4.1-9.8,9.8c0,5.7,4.2,9.8,9.8,9.8s9.8-4.1,9.8-9.8C372.1,117.5,367.9,113.4,362.3,113.4
							 M362.3,108.9c8.7,0,15,6.1,15,14.4s-6.4,14.4-15,14.4c-8.7,0-15-6.1-15-14.4C347.3,115,353.7,108.9,362.3,108.9 M366.2,139.9
							c1.4,0,2.4,1,2.4,2.4c0,1.4-1,2.4-2.4,2.4c-1.4,0-2.4-1-2.4-2.4C363.8,140.9,364.8,139.9,366.2,139.9 M358.4,139.9
							c1.4,0,2.4,1,2.4,2.4c0,1.4-1,2.4-2.4,2.4c-1.4,0-2.4-1-2.4-2.4C356.1,140.9,357.1,139.9,358.4,139.9 M325.9,113.7l16.4,20.1
							v3.5h-23v-4.4h16.2L319,112.7v-3.5h23.8v4.4H325.9z"/>
					</g>
					<g id="g44_2_" transform="translate(234.6406,61.4611)">
						<path id="path46_2_" fill="#11501E" d="M431.8,116.4c20.2,26,30.6,56,30.6,80.4c0,36.4-21.1,45.3-78.2,46.7l-5.1-10.2
							c-3.6-0.2-7.3-0.7-11.5-1.1l-12-25.1c4.7-0.4,9.1-1.1,13.3-1.8c-12.9-27.8-18.7-47.8-18.7-59.3c0-15.3,7.6-26.7,23.3-38.2
							c10.9-8,20.7-11.3,26.2-11.3C410.7,96.5,421.5,103.1,431.8,116.4 M439.6,174.8c0-4.2-5.4-15.7-17.6-28.2
							c-11.7-12.2-23.3-20.2-36.8-23.6v1.4c0,1.3-0.4,4.7-0.4,9.5c0,13.1,4.9,34.9,14.9,65.5C425.7,194.6,439.6,184.6,439.6,174.8
							 M324.7,151.7c-2.9,2.7-15.6,5.1-38,6.7c18.4,7.5,32.4,14.6,42.2,23.1l3.3,24.4c-21.5,27.8-52,42.4-89,42.4
							c-7.3,0-14.9-0.7-22.2-2c0.9-23.5-1.8-28.2,10.7-28.4c-5.1-19.1-9.8-40-13.6-62.4c-2.6-0.2-4.7-6-4.7-13.8
							c0-1.6,1.6-2.9,4.2-5.1v-4.9c0-8.2,0.9-16.4,3.1-24.7l9.3,4.7c1.6,7.3,2.9,15.7,4.2,24.8c12.4,1.6,23.1,2.2,32,2.2
							c14.9,0,27.3-1.1,38-4.9c-6.7-5.8-20.9-11.6-41.5-14.7c0,2.9-0.9,4.7-2,4.7c-8.7,0-22.9-15.7-22.9-20.6c0-1.6,3.1-2.7,9.1-2.7
							c14,0,36.9,3.8,60.9,13.1c19.3,7.3,27.3,17.1,27.3,19.8C335.2,135.3,330.9,145.8,324.7,151.7 M237.7,168l12,50.2h3.3
							c18,0,32-4.9,41.1-13.3L237.7,168z M214,275.3c0,10.6-8.5,19.1-19.1,19.1c-10.5,0-19.1-8.5-19.1-19.1
							c0-10.5,8.5-19.1,19.1-19.1C205.4,256.2,214,264.8,214,275.3 M180.4,244.2c-5.3,0-5.8-1.1-8.9-6
							c-7.5-11.7-15.1-26.7-20.6-42.2l9.1-22.4c-6-26-8.4-42.9-8.4-50c0-18,11.3-29.1,20.7-29.1h1.5
							c15.6,71.1,31.5,109.9,31.5,117.3c0,2.9-4.4,17.1-13.3,29.8c-1.8,2.5-3.3,2.7-6.6,2.7H180.4z"/>
					</g>
					<g id="g48_2_" transform="translate(363.5273,46.7677)">
						<path id="path50_2_" fill="#11501E" d="M496,109.1c10.5,0,19.6,3.7,27.1,11.3c7.5,7.4,11.3,16.5,11.3,27.1v109.9h-27.1V147.5
							c0-3.1-1.1-5.8-3.3-8c-2.2-2.2-4.9-3.3-8-3.3c-3.2,0-5.9,1.1-8,3.3c-2.2,2.2-3.3,4.9-3.3,8v109.9h-27.1V147.5
							c0-7.9,2.2-15,6.6-21.5c4.3-6.3,9.9-10.9,16.9-13.9c5.7,2.5,11.1,6.7,16.2,12.7c5.3,6.1,8.7,12.2,10.1,18.1
							c-1.1-14.1-7.3-25.2-18.5-33.2C491.2,109.3,493.6,109.1,496,109.1 M361.2,257.4h27.1v-52.5l-17.3-3.9h43v56.4h27.1V109.1H414
							v60.8l17.3,3.9h-43v-64.7h-27.1V257.4z"/>
					</g>
				</g>
			</g>
		</g>
	</g>
	<g id="g10_2_" transform="matrix(1.3333333,0,0,-1.3333333,0,288.35733)" display="none">
		<g id="g12_3_" display="inline">
			<g>
				<g id="g14_3_">
					<g id="g20_3_" transform="translate(471.2979,103.5021)">
						<path id="path22_3_" fill="#F47216" d="M534.8,134.4c-2.7,3.6-6.4,6.2-11.2,7.8l-1,0.3v2.7l0.9,0.4c4,1.8,7.2,4.3,9.5,7.5
							c2.3,3.2,3.4,7.1,3.4,11.6c0,4.5-1.3,8.5-3.8,12.1c-2.6,3.6-6.1,6.5-10.6,8.6c-4.5,2.1-9.8,3.1-15.6,3.1h-0.7v-13.3
							c3.5-0.3,6.5-1.3,9-3.1c3.2-2.2,4.8-5.5,4.8-9.9c0-4.4-1.5-7.8-4.5-10.2c-2.5-2-5.6-3.1-9.2-3.4v-1.3c0-5.3,3.3-10.1,8.3-12
							c0.7-0.3,1.4-0.6,2-0.9c3.7-1.9,5.6-5.7,5.6-11.3c0-4.8-1.6-8.5-4.9-11c-2.7-2.1-6.4-3.2-11.1-3.5V95.7h0.7
							c6.6,0,12.4,1.1,17.3,3.3c4.8,2.2,8.6,5.2,11.2,9c2.6,3.8,3.9,8.1,3.9,12.9C538.8,126.3,537.5,130.8,534.8,134.4L534.8,134.4z
							"/>
					</g>
					<g id="g24_3_" transform="translate(446.8525,138.5246)">
						<path id="path26_3_" fill="#11501E" d="M522.6,151.8c-14.6-4.6-43.9-26.2-43.9-43c16.2,0,33.2,18.7,43.9,30.1V151.8z"/>
					</g>
					<g id="g28_3_" transform="translate(515.7598,136.9513)">
						<path id="path30_3_" fill="#F47216" d="M556.9,151c-4.7,2.8-10,4.1-15.7,4.1h-1.9h-1.9c-5.7,0-11-1.4-15.7-4.1
							c-4.7-2.8-8.5-6.5-11.3-11.3c-2.7-4.7-4.1-10-4.1-15.8V93.3c0-5.8,1.4-11.1,4.1-15.8c2.8-4.7,6.5-8.5,11.3-11.2
							c3.2-1.8,6.7-3.1,10.4-3.7v7.6c0,3.6-1.6,6.9-4.1,9.5l0,0c-3,3.1-4.6,6.9-4.6,11.4v35.1c0,4.5,1.5,8.3,4.6,11.4
							c3,3.1,6.9,4.7,11.3,4.7c4.5,0,8.3-1.6,11.3-4.7c3-3.1,4.6-6.9,4.6-11.4V91.2c0-4.5-1.5-8.3-4.6-11.4l0,0
							c-2.5-2.5-4.1-5.9-4.1-9.5v-7.6c3.7,0.6,7.2,1.8,10.4,3.7c4.7,2.7,8.5,6.5,11.3,11.2c2.7,4.7,4.1,10,4.1,15.8v30.6
							c0,5.8-1.4,11.1-4.1,15.8C565.5,144.5,561.7,148.3,556.9,151"/>
					</g>
					<g id="g32_3_" transform="translate(446.8525,77.6788)">
						<path id="path34_3_" fill="#11501E" d="M522.6,121.5c-14.6,4.6-43.9,26.2-43.9,43c16.2,0,33.2-18.7,43.9-30.1V121.5z"/>
					</g>
					<g id="g36_3_" transform="translate(664.8262,139.6901)">
						<path id="path38_3_" fill="#11501E" d="M631.2,152.4v-17h-14.7V59.5h-16.9V133l10.8,2.5h-25.5v17H631.2z M557.5,101.4v27
							c0,2.1-0.8,4.7-2.4,7.8c-1.4,2.8-3,5-4.7,6.7c-2.7,2.8-6,4.9-10,6.3c1.4-0.8,3.5-2.6,6.3-5.4c2.5-2.5,4.4-5.4,5.5-8.7
							c-0.6,0.2-1.1,0.3-1.7,0.3c-2,0-3.7-0.7-5-2.1c-1.4-1.4-2.1-3-2.1-5v-27H557.5z M550.4,152.4c6.6,0,12.3-2.3,17-7.1
							c4.7-4.7,7.1-10.3,7.1-17V59.5h-17v24.9h-25l10.8-2.5V59.5h-17v68.9c0,6.7,2.4,12.3,7.1,17C538.1,150,543.8,152.4,550.4,152.4
							 M486.6,79.8c-3.6,0.1-7,1.7-10,4.9c-2.8,2.9-4.8,6.3-6,10.3v57.4h17V79.8H486.6z M488.7,59.5c-5,0-9.3,1.8-12.8,5.3
							c-3.6,3.5-5.3,7.8-5.3,12.8v15c1-4.4,2.7-8,5.1-10.7c3.4-3.8,7.9-5.6,13.6-5.5H516V59.5L488.7,59.5z"/>
					</g>
					<g id="g40_3_" transform="translate(664.4824,40.9923)">
						<path id="path42_3_" fill="#11501E" d="M631,103.2l0,23.6h-3.6l-9.2-15.7l-9.4,15.7h-3.6v-23.6h4.2v15.4l7.8-12.7h2l7.8,13
							l0-15.7H631z M586.9,106.9v6.5h11.4v3.6h-11.4v6.1h12.9v3.7h-17.2v-23.6h17.7v3.7H586.9z M568.9,102.9c3.9,0,7.2,1.4,9.4,3.9
							l-2.8,2.7c-1.7-1.9-3.8-2.8-6.3-2.8c-4.9,0-8.4,3.4-8.4,8.3c0,4.9,3.5,8.3,8.4,8.3c2.5,0,4.6-0.9,6.3-2.8l2.8,2.7
							c-2.2,2.6-5.5,3.9-9.3,3.9c-7.3,0-12.7-5.1-12.7-12.1C556.3,108,561.7,102.9,568.9,102.9 M548.7,118.5c0-3-2-4.7-5.8-4.7h-5.1
							v9.4h5.1C546.7,123.1,548.7,121.4,548.7,118.5 M553.5,103.2l-5.4,7.8c3.2,1.2,5,3.9,5,7.5c0,5.2-3.8,8.4-10.1,8.4h-9.7v-23.6
							h4.4v6.9h5.3c0.3,0,0.6,0,0.9,0l4.8-6.9H553.5z M515.1,106.9v6.5h11.4v3.6h-11.4v6.1H528v3.7h-17.2v-23.6h17.7v3.7H515.1z
							 M496.8,102.9c6.5,0,9.5,3.2,9.5,7c0,8.7-14,5.4-14,10.4c0,1.8,1.5,3.2,5.1,3.2c2.1,0,4.4-0.6,6.5-1.9l1.4,3.4
							c-2.1,1.3-5,2.1-7.9,2.1c-6.5,0-9.5-3.2-9.5-7.1c0-8.8,14-5.4,14-10.5c0-1.8-1.6-3.1-5.2-3.1c-2.9,0-5.9,1.1-7.8,2.6l-1.5-3.4
							C489.5,104.1,493.2,102.9,496.8,102.9 M473.9,103.2l0,23.6h-3.6l-9.2-15.7l-9.4,15.7H448v-23.6h4.2v15.4l7.8-12.7h2l7.8,13
							l0-15.7H473.9z M445.5,126.9h-4.3l-7-11.5l-6.9,11.5h-4.7l9.3-15.3v-8.3h4.4v8.3L445.5,126.9z M415.3,126.9v-16l-13,16h-3.6
							v-23.6h4.4v16l13-16h3.6v23.6H415.3z M381.3,106.8c-4.8,0-8.3,3.5-8.3,8.3s3.5,8.3,8.3,8.3c4.8,0,8.3-3.5,8.3-8.3
							S386.1,106.8,381.3,106.8 M381.3,102.9c7.3,0,12.7,5.1,12.7,12.1c0,7-5.4,12.1-12.7,12.1c-7.3,0-12.7-5.2-12.7-12.1
							S374,102.9,381.3,102.9 M350.5,103.2h16.7v3.7h-12.3v19.9h-4.4L350.5,103.2z M332.3,106.9v6.5h11.4v3.6h-11.4v6.1h12.9v3.7
							h-17.2v-23.6h17.7v3.7H332.3z M317.2,103.2h4.4v23.6h-4.4V103.2z M298.8,107l13.9,17v2.9h-19.5v-3.7h13.7l-13.9-17v-2.9h20.1
							v3.7H298.8z M267.2,107l13.9,17v2.9h-19.5v-3.7h13.7l-13.9-17v-2.9h20.1v3.7H267.2z"/>
					</g>
					<g id="g44_3_" transform="translate(244.543,55.4601)">
						<path id="path46_3_" fill="#11501E" d="M421.9,110.4c20.2,26,30.6,56,30.6,80.4c0,36.4-21.1,45.3-78.2,46.7l-5.1-10.2
							c-3.6-0.2-7.3-0.7-11.5-1.1l-12-25.1c4.7-0.4,9.1-1.1,13.3-1.8c-12.9-27.8-18.7-47.8-18.7-59.3c0-15.3,7.6-26.7,23.3-38.2
							c10.9-8,20.7-11.3,26.2-11.3C400.8,90.5,411.6,97.1,421.9,110.4 M429.7,168.8c0-4.2-5.4-15.7-17.6-28.2
							c-11.7-12.2-23.3-20.2-36.8-23.6v1.4c0,1.3-0.4,4.7-0.4,9.5c0,13.1,4.9,34.9,14.9,65.5C415.8,188.6,429.7,178.6,429.7,168.8
							 M314.8,145.7c-2.9,2.7-15.6,5.1-38,6.7c18.4,7.5,32.4,14.6,42.2,23.1l3.3,24.4c-21.5,27.8-52,42.4-89,42.4
							c-7.3,0-14.9-0.7-22.2-2c0.9-23.5-1.8-28.2,10.7-28.4c-5.1-19.1-9.8-40-13.6-62.4c-2.6-0.2-4.7-6-4.7-13.8
							c0-1.6,1.6-2.9,4.2-5.1v-4.9c0-8.2,0.9-16.4,3.1-24.7l9.3,4.7c1.6,7.3,2.9,15.7,4.2,24.8c12.4,1.6,23.1,2.2,32,2.2
							c14.9,0,27.3-1.1,38-4.9c-6.7-5.8-20.9-11.6-41.5-14.7c0,2.9-0.9,4.7-2,4.7c-8.7,0-22.9-15.7-22.9-20.6c0-1.6,3.1-2.7,9.1-2.7
							c14,0,36.9,3.8,60.9,13.1c19.3,7.3,27.3,17.1,27.3,19.8C325.3,129.3,321,139.8,314.8,145.7 M227.8,162l12,50.2h3.3
							c18,0,32-4.9,41.1-13.3L227.8,162z M204.1,269.3c0,10.6-8.5,19.1-19.1,19.1c-10.5,0-19.1-8.5-19.1-19.1
							c0-10.5,8.5-19.1,19.1-19.1C195.5,250.2,204.1,258.8,204.1,269.3 M170.5,238.2c-5.3,0-5.8-1.1-8.9-6
							c-7.5-11.7-15.1-26.7-20.6-42.2l9.1-22.4c-6-26-8.4-42.9-8.4-50c0-18,11.3-29.1,20.7-29.1h1.5
							c15.6,71.1,31.5,109.9,31.5,117.3c0,2.9-4.4,17.1-13.3,29.8c-1.8,2.5-3.3,2.7-6.6,2.7H170.5z"/>
					</g>
					<g id="g48_3_" transform="translate(364.8789,62.3654)">
						<path id="path50_3_" fill="#11501E" d="M481.8,113.9c-5.8,0.2-11.1,2.8-16,7.8c-4.5,4.5-7.7,10-9.5,16.4v91.7h27.1V113.9
							H481.8z M485.1,81.5c-8,0-14.8,2.8-20.4,8.5c-5.7,5.6-8.5,12.4-8.5,20.4v24c1.6-7,4.3-12.7,8.1-17c5.4-6.1,12.6-9,21.7-8.8
							h42.7v-27H485.1z M412.7,187.1c0,4.3-1.5,8-4.5,11.1c-3.1,3-6.8,4.6-11.1,4.6h-10.1v-71.9l3.9,25.8h6.2c4.3,0,8,1.5,11.1,4.5
							c3,3,4.5,6.7,4.5,11V187.1z M397.8,229.8c11.6-0.2,21.5-4.4,29.6-12.7c8.2-8.3,12.3-18.3,12.3-30v-14.9
							c0-11.8-4.2-21.8-12.5-30.2c-8.4-8.3-18.4-12.5-30.2-12.5h-10.1V81.5h-27.1v148.2h28.5c5.1-3,10-7.8,14.6-14.1
							c4.6-6.5,7.3-12.7,8.3-18.5C410.5,209.8,406.1,220.7,397.8,229.8"/>
					</g>
				</g>
			</g>
		</g>
	</g>
	<g id="g10_3_" transform="matrix(1.3333333,0,0,-1.3333333,0,283.024)" display="none">
		<g id="g12_4_" display="inline">
			<g>
				<g id="g14_4_">
					<g id="g20_4_" transform="translate(455.2979,101.5021)">
						<path id="path22_4_" fill="#F47216" d="M550.8,132.4c-2.7,3.6-6.4,6.2-11.2,7.8l-1,0.3v2.7l0.9,0.4c4,1.8,7.2,4.3,9.5,7.5
							c2.3,3.2,3.4,7.1,3.4,11.6c0,4.5-1.3,8.5-3.8,12.1c-2.6,3.6-6.1,6.5-10.6,8.6c-4.5,2.1-9.8,3.1-15.6,3.1h-0.7v-13.3
							c3.5-0.3,6.5-1.3,9-3.1c3.2-2.2,4.8-5.5,4.8-9.9c0-4.4-1.5-7.8-4.5-10.2c-2.5-2-5.6-3.1-9.2-3.4v-1.3c0-5.3,3.3-10.1,8.3-12
							c0.7-0.3,1.4-0.6,2-0.9c3.7-1.9,5.6-5.7,5.6-11.3c0-4.8-1.6-8.5-4.9-11c-2.7-2.1-6.4-3.2-11.1-3.5V93.7h0.7
							c6.6,0,12.4,1.1,17.3,3.3c4.8,2.2,8.6,5.2,11.2,9c2.6,3.8,3.9,8.1,3.9,12.9C554.8,124.3,553.5,128.8,550.8,132.4L550.8,132.4z
							"/>
					</g>
					<g id="g24_4_" transform="translate(430.8525,136.5246)">
						<path id="path26_4_" fill="#11501E" d="M538.6,149.8c-14.6-4.6-43.9-26.2-43.9-43c16.2,0,33.2,18.7,43.9,30.1V149.8z"/>
					</g>
					<g id="g28_4_" transform="translate(499.7598,134.9513)">
						<path id="path30_4_" fill="#F47216" d="M572.9,149c-4.7,2.8-10,4.1-15.7,4.1h-1.9h-1.9c-5.7,0-11-1.4-15.7-4.1
							c-4.7-2.8-8.5-6.5-11.3-11.3c-2.7-4.7-4.1-10-4.1-15.8V91.3c0-5.8,1.4-11.1,4.1-15.8c2.8-4.7,6.5-8.5,11.3-11.2
							c3.2-1.8,6.7-3.1,10.4-3.7v7.6c0,3.6-1.6,6.9-4.1,9.5l0,0c-3,3.1-4.6,6.9-4.6,11.4v35.1c0,4.5,1.5,8.3,4.6,11.4
							c3,3.1,6.9,4.7,11.3,4.7c4.5,0,8.3-1.6,11.3-4.7c3-3.1,4.6-6.9,4.6-11.4V89.2c0-4.5-1.5-8.3-4.6-11.4l0,0
							c-2.5-2.5-4.1-5.9-4.1-9.5v-7.6c3.7,0.6,7.2,1.8,10.4,3.7c4.7,2.7,8.5,6.5,11.3,11.2c2.7,4.7,4.1,10,4.1,15.8v30.6
							c0,5.8-1.4,11.1-4.1,15.8C581.5,142.5,577.7,146.3,572.9,149"/>
					</g>
					<g id="g32_4_" transform="translate(430.8525,75.6788)">
						<path id="path34_4_" fill="#11501E" d="M538.6,119.5c-14.6,4.6-43.9,26.2-43.9,43c16.2,0,33.2-18.7,43.9-30.1V119.5z"/>
					</g>
					<g id="g36_4_" transform="translate(612.2773,87.0158)">
						<path id="path38_4_" fill="#11501E" d="M629,125.2v-17h-27.3c-5,0-9.3,1.8-12.8,5.3c-3.6,3.5-5.3,7.8-5.3,12.8v15
							c1-4.5,2.7-8.2,5.3-10.9c3.5-3.8,8.2-5.5,14.2-5.2H629z M629,201.1v-17h-28.4v-18.4h20.3v-17h-20.3v-20.2h-1
							c-3.6,0.1-7,1.7-10,4.8c-2.8,2.8-4.8,6.2-6,10.2V183c0,5,1.8,9.3,5.3,12.8c3.5,3.5,7.7,5.3,12.8,5.3H629z M556.2,177
							c0,1.9-0.7,3.6-2.1,5c-1.4,1.4-3.1,2.1-5,2.1h-6.6l-2.5,15.6v-74.6h9.1c1.9,0,3.6,0.7,5,2.1c1.4,1.4,2.1,3,2.1,5L556.2,177z
							 M549.2,201.1c6.6,0,12.3-2.3,17-7.1c4.7-4.7,7.1-10.3,7.1-17v-44.8c0-6.5-2.3-12.1-6.7-16.7c-4.5-4.6-10-7.1-16.5-7.3
							c4.2,4.9,6.2,10.8,6.2,17.8c0,0.9,0,1.9-0.1,2.9c-0.5-5.6-2.3-10.4-5.3-14.3c-3-3.9-6.6-6-10.6-6.3h-17.1v77.1l17,15.8H549.2z
							"/>
					</g>
					<g id="g40_4_" transform="translate(604.6133,41.0704)">
						<path id="path42_4_" fill="#11501E" d="M625.2,102.3v5.6h9.8v3.1h-9.8v5.3h11v3.2h-14.8V99.1h15.2v3.2H625.2z M601.2,102.3
							v13.9h4.9c4.5,0,7.4-2.8,7.4-7s-2.9-7-7.4-7H601.2z M597.4,99.1h8.9c6.6,0,11.1,4.1,11.1,10.1c0,6.1-4.5,10.1-11.1,10.1h-8.9
							V99.1z M589.4,112.2c0-2.6-1.7-4.1-5-4.1H580v8.1h4.4C587.7,116.2,589.4,114.7,589.4,112.2 M593.6,99.1l-4.7,6.7
							c2.8,1.1,4.3,3.3,4.3,6.4c0,4.5-3.3,7.2-8.6,7.2h-8.3V99.1h3.8v5.9h4.6c0.3,0,0.5,0,0.8,0l4.1-5.9H593.6z M560.6,102.3v5.6
							h9.8v3.1h-9.8v5.3h11v3.2h-14.8V99.1h15.2v3.2H560.6z M550.9,119.4l-6.8-15.7l-6.8,15.7h-4.1l8.9-20.3h3.7l8.8,20.3H550.9z
							 M510.7,106.8l3.8,8.9l3.8-8.9H510.7z M521.6,99.1h3.9l-9.2,20.3h-3.7l-9.1-20.3h3.9l2,4.7h10.1L521.6,99.1z M514.6,120.9
							c2.8,0,4.9,1.6,5,4.2h-2.4c-0.1-1.3-1.2-2.2-2.6-2.2s-2.6,0.8-2.6,2.2h-2.4C509.7,122.5,511.8,120.9,514.6,120.9 M501,99.1
							l0,20.3h-3.1l-7.9-13.5l-8.1,13.5h-3.1V99.1h3.6v13.3l6.7-11h1.7l6.7,11.1l0-13.4L501,99.1z M469.5,99.1h3.8v20.3h-3.8V99.1z
							 M460.3,119.4v-13.7l-11.2,13.7H446V99.1h3.7v13.7L461,99.1h3.1v20.3H460.3z M436.8,99.1h3.8v20.3h-3.8V99.1z M414.7,98.8
							c5.5,0,8.9,3.2,8.9,9.1v11.4h-3.7v-11.3c0-4.2-1.9-6-5.1-6c-3.3,0-5.2,1.8-5.2,6v11.3h-3.8V108
							C405.8,102,409.1,98.8,414.7,98.8 M394.4,98.8c3.3,0,6.2,1.2,8.1,3.4l-2.4,2.3c-1.5-1.6-3.3-2.4-5.4-2.4c-4.2,0-7.2,3-7.2,7.1
							c0,4.2,3,7.1,7.2,7.1c2.1,0,3.9-0.8,5.4-2.4l2.4,2.3c-1.9,2.2-4.7,3.4-8,3.4c-6.2,0-10.9-4.4-10.9-10.4
							C383.6,103.2,388.2,98.8,394.4,98.8 M367.8,99.1h3.8v20.3h-3.8V99.1z M358.6,119.4v-13.7l-11.2,13.7h-3.1V99.1h3.7v13.7
							l11.2-13.7h3.1v20.3L358.6,119.4z M326.9,106.8l3.8,8.9l3.8-8.9H326.9z M337.8,99.1h3.9l-9.2,20.3h-3.7l-9.1-20.3h3.9l2,4.7
							h10.1L337.8,99.1z"/>
					</g>
					<g id="g44_4_" transform="translate(228.543,53.4611)">
						<path id="path46_4_" fill="#11501E" d="M437.9,108.4c20.2,26,30.6,56,30.6,80.4c0,36.4-21.1,45.3-78.2,46.7l-5.1-10.2
							c-3.6-0.2-7.3-0.7-11.5-1.1l-12-25.1c4.7-0.4,9.1-1.1,13.3-1.8c-12.9-27.8-18.7-47.8-18.7-59.3c0-15.3,7.6-26.7,23.3-38.2
							c10.9-8,20.7-11.3,26.2-11.3C416.8,88.5,427.6,95.1,437.9,108.4 M445.7,166.8c0-4.2-5.4-15.7-17.6-28.2
							c-11.7-12.2-23.3-20.2-36.8-23.6v1.4c0,1.3-0.4,4.7-0.4,9.5c0,13.1,4.9,34.9,14.9,65.5C431.8,186.6,445.7,176.6,445.7,166.8
							 M330.8,143.7c-2.9,2.7-15.6,5.1-38,6.7c18.4,7.5,32.4,14.6,42.2,23.1l3.3,24.4c-21.5,27.8-52,42.4-89,42.4
							c-7.3,0-14.9-0.7-22.2-2c0.9-23.5-1.8-28.2,10.7-28.4c-5.1-19.1-9.8-40-13.6-62.4c-2.6-0.2-4.7-6-4.7-13.8
							c0-1.6,1.6-2.9,4.2-5.1v-4.9c0-8.2,0.9-16.4,3.1-24.7l9.3,4.7c1.6,7.3,2.9,15.7,4.2,24.8c12.4,1.6,23.1,2.2,32,2.2
							c14.9,0,27.3-1.1,38-4.9c-6.7-5.8-20.9-11.6-41.5-14.7c0,2.9-0.9,4.7-2,4.7c-8.7,0-22.9-15.7-22.9-20.6c0-1.6,3.1-2.7,9.1-2.7
							c14,0,36.9,3.8,60.9,13.1c19.3,7.3,27.3,17.1,27.3,19.8C341.3,127.3,337,137.8,330.8,143.7 M243.8,160l12,50.2h3.3
							c18,0,32-4.9,41.1-13.3L243.8,160z M220.1,267.3c0,10.6-8.5,19.1-19.1,19.1c-10.5,0-19.1-8.5-19.1-19.1
							c0-10.5,8.5-19.1,19.1-19.1C211.5,248.2,220.1,256.8,220.1,267.3 M186.5,236.2c-5.3,0-5.8-1.1-8.9-6
							c-7.5-11.7-15.1-26.7-20.6-42.2l9.1-22.4c-6-26-8.4-42.9-8.4-50c0-18,11.3-29.1,20.7-29.1h1.5
							c15.6,71.1,31.5,109.9,31.5,117.3c0,2.9-4.4,17.1-13.3,29.8c-1.8,2.5-3.3,2.7-6.6,2.7H186.5z"/>
					</g>
					<g id="g48_4_" transform="translate(365.1074,112.1139)">
						<path id="path50_4_" fill="#11501E" d="M505.9,137.7c0,3.1-1.1,5.8-3.3,8c-2.2,2.2-4.9,3.3-8,3.3c-0.8,0-1.6-0.1-2.3-0.2
							c1.5,3.9,4.4,7.9,8.8,12.1c4.5,4.2,8.9,7.1,13.3,8.8c-7.4-0.6-14.3-4.1-20.8-10.3c-6.9-6.5-10.4-13.8-10.4-21.7V66.1
							c0-3.1,1.1-5.8,3.3-8c2.2-2.2,4.9-3.3,8-3.3c0.8,0,1.5,0.1,2.2,0.2c-1.5-3.9-4.4-7.9-8.8-12.1c-4.5-4.2-8.9-7.1-13.3-8.8
							c7.4,0.6,14.3,4,20.8,10.2c6.9,6.5,10.4,13.8,10.4,21.7V137.7z M494.6,176c10.6,0,19.6-3.7,27.1-11.3
							c7.5-7.4,11.3-16.5,11.3-27.1V66.1c0-10.6-3.7-19.7-11.3-27.1c-7.5-7.5-16.5-11.3-27.1-11.3c-10.6,0-19.7,3.7-27.2,11.3
							c-7.5,7.4-11.3,16.5-11.3,27.1v71.5c0,10.6,3.8,19.7,11.3,27.1C474.9,172.3,484,176,494.6,176 M386.7,102.8h10.1
							c4.3,0,8,1.5,11.1,4.6c3.1,3,4.6,6.7,4.6,11v14.9c0,4.3-1.6,8-4.6,11.1c-3,3-6.7,4.6-11.1,4.6h-10.1L386.7,102.8z
							 M439.6,118.4c0-9.6-3.5-18.9-10.6-27.9c-6.8-8.9-14.9-14.8-24.2-17.7c8.3,1.4,15.7,4.4,22.2,9c0.6,0.4,1.1,0.9,1.7,1.3
							c2.9-4.8,4.7-10,5.5-15.6l5.4-39.8h-26.9l-5.5,38c-0.7,3.4-2.5,6.1-5.2,8.3c-2.8,2.2-5.9,3.3-9.5,3.3h-5.9V27.8h-27.1V176
							h28.5c5.2-3,10.1-7.8,14.6-14.1c4.6-6.5,7.4-12.7,8.4-18.5c-0.7,12.7-5.3,23.6-13.5,32.7c11.6-0.2,21.6-4.4,29.7-12.7
							c8.2-8.3,12.3-18.3,12.3-30V118.4z"/>
					</g>
				</g>
			</g>
		</g>
	</g>
</g>
<g id="PL" display="none">
	<g display="inline">
		<path fill="#F48120" d="M1243.3-30.2c-3.1-4.2-7.3-7.1-12.9-9l-1.2-0.4v-3.1l1-0.5c4.6-2,8.2-4.9,10.9-8.6
			c2.6-3.6,3.9-8.1,3.9-13.3c0-5.1-1.5-9.8-4.3-13.9c-2.9-4.1-7-7.4-12.1-9.8c-5.2-2.4-11.2-3.6-17.9-3.6h-0.8v15.2
			c4,0.4,7.5,1.5,10.3,3.5c3.6,2.5,5.5,6.4,5.5,11.3c0,5-1.7,8.9-5.2,11.6c-2.9,2.3-6.4,3.6-10.5,3.9v1.5c0,6.1,3.7,11.6,9.5,13.8
			c0.8,0.3,1.6,0.7,2.3,1c4.2,2.2,6.4,6.5,6.4,12.9c0,5.5-1.9,9.8-5.6,12.6c-3.1,2.4-7.4,3.7-12.7,4v15.1h0.8
			c7.5,0,14.2-1.3,19.8-3.7c5.5-2.5,9.9-5.9,12.9-10.3c3-4.3,4.5-9.3,4.5-14.7C1248-21,1246.4-26.2,1243.3-30.2L1243.3-30.2z"/>
		<path fill="#04592E" d="M1201.4-90.3c-16.7,5.2-50.3,30-50.3,49.3c18.6,0,38-21.5,50.3-34.4V-90.3z"/>
		<path fill="#F48120" d="M1319.6-87.6c-5.4-3.1-11.5-4.7-18-4.7h-2.2h-2.2c-6.5,0-12.5,1.6-18,4.7c-5.4,3.2-9.8,7.5-12.9,12.9
			c-3.1,5.4-4.7,11.5-4.7,18.1v35c0,6.6,1.6,12.7,4.7,18.1c3.2,5.4,7.5,9.7,12.9,12.8c3.7,2.1,7.7,3.5,11.9,4.2V4.9
			c0-4.1-1.8-7.9-4.7-10.8l0,0c-3.5-3.5-5.2-7.9-5.2-13v-40.2c0-5.1,1.8-9.5,5.2-13.1c3.5-3.5,7.9-5.3,13-5.3s9.5,1.8,13,5.3
			c3.5,3.5,5.2,7.9,5.2,13.1v40.2c0,5.1-1.8,9.5-5.2,13l0,0c-2.9,2.9-4.7,6.7-4.7,10.8v8.7c4.2-0.7,8.2-2.1,11.9-4.2
			c5.4-3.1,9.7-7.4,12.9-12.8c3.1-5.4,4.7-11.5,4.7-18.1v-35c0-6.6-1.6-12.7-4.7-18.1C1329.4-80.1,1325-84.5,1319.6-87.6"/>
		<path fill="#04592E" d="M1201.4,14.1c-16.7-5.2-50.3-30-50.3-49.3c18.6,0,38,21.5,50.3,34.4V14.1z"/>
		<path fill="#04592E" d="M1412.1,14.1c-5.7,0-10.6-2-14.6-6.1c-4.1-4-6.1-8.9-6.1-14.6v-17.2c1.1,5,3.1,9.1,5.8,12.2
			c3.8,4.4,9,6.5,15.6,6.3h30.6v19.4H1412.1z M1409.7-9.1c-4.1-0.2-8-2-11.5-5.6c-3.2-3.3-5.5-7.2-6.8-11.8v-65.8h19.5v83.2H1409.7z
			 M1482.9-92.3c7.6,0,14.1,2.7,19.4,8.1c5.4,5.3,8.1,11.8,8.1,19.4v78.9H1491v-28.5h-28.6l12.4,2.8v25.7h-19.4v-78.9
			c0-7.6,2.7-14.1,8.1-19.4C1468.8-89.6,1475.3-92.3,1482.9-92.3 M1491-33.9v-30.9c0-2.4-0.9-5.4-2.8-8.9c-1.6-3.2-3.4-5.7-5.4-7.7
			c-3.1-3.2-6.9-5.6-11.4-7.3c1.6,0.9,4,3,7.2,6.2c2.9,2.9,5,6.2,6.3,10c-0.6-0.2-1.3-0.3-2-0.3c-2.3,0-4.2,0.8-5.8,2.4
			c-1.6,1.6-2.4,3.5-2.4,5.7v30.9H1491z M1575.3-92.3v19.4h-16.8v87h-19.4V-70l12.3-2.8h-29.2v-19.4H1575.3z"/>
		<path fill="#04592E" d="M1158.1,72.8l15.9-19.4V50h-22.3v4.3h15.6l-15.9,19.4V77h23.1v-4.3H1158.1z M1194.3,72.8l15.9-19.4V50
			h-22.3v4.3h15.7l-15.9,19.4V77h23.1v-4.3H1194.3z M1215.3,77h5V50h-5V77z M1232.7,72.8v-7.5h13.1v-4.1h-13.1v-7h14.7V50h-19.7v27
			h20.3v-4.2H1232.7z M1253.6,77h19.2v-4.3h-14.1V50h-5V77z M1288.8,77.4c8.4,0,14.6-5.9,14.6-13.9c0-8-6.2-13.9-14.6-13.9
			c-8.4,0-14.6,5.9-14.6,13.9S1280.4,77.4,1288.8,77.4 M1288.8,73c-5.4,0-9.5-4-9.5-9.5s4.1-9.5,9.5-9.5s9.5,4,9.5,9.5
			S1294.3,73,1288.8,73 M1327.8,50v18.3L1312.9,50h-4.1v27h5V58.7l14.9,18.3h4.1V50H1327.8z M1362.3,50h-4.9l-8,13.2l-7.9-13.2h-5.4
			l10.6,17.6V77h5v-9.5L1362.3,50z M1394.8,77l0-27h-4.1l-10.6,17.9L1369.3,50h-4.1v27h4.8V59.3l8.9,14.6h2.2l8.9-14.8l0,17.9
			H1394.8z M1421.1,77.4c7.4,0,10.9-3.7,10.9-8c0-9.9-16-6.2-16-11.9c0-2.1,1.7-3.7,5.9-3.7c2.4,0,5,0.7,7.5,2.1l1.6-3.9
			c-2.4-1.5-5.8-2.4-9-2.4c-7.4,0-10.9,3.7-10.9,8.1c0,10,16.1,6.2,16.1,12.1c0,2-1.8,3.5-6,3.5c-3.3,0-6.8-1.2-8.9-3l-1.7,3.9
			C1412.7,76.1,1416.9,77.4,1421.1,77.4 M1442.1,72.8v-7.5h13.1v-4.1h-13.1v-7h14.7V50H1437v27h20.3v-4.2H1442.1z M1486,77l-6.2-8.9
			c3.7-1.4,5.8-4.4,5.8-8.5c0-6-4.4-9.6-11.5-9.6h-11.1v27h5v-7.9h6.1c0.3,0,0.7,0,1,0l5.5,7.9H1486z M1480.5,59.6
			c0,3.4-2.3,5.4-6.7,5.4h-5.9V54.2h5.9C1478.2,54.2,1480.5,56.2,1480.5,59.6 M1503.7,77.4c4.4,0,8.2-1.6,10.7-4.5l-3.2-3.1
			c-2,2.2-4.4,3.2-7.2,3.2c-5.6,0-9.7-3.9-9.7-9.5c0-5.6,4.1-9.5,9.7-9.5c2.8,0,5.3,1,7.2,3.2l3.2-3.1c-2.5-2.9-6.3-4.5-10.7-4.5
			c-8.3,0-14.5,5.8-14.5,13.9C1489.2,71.6,1495.4,77.4,1503.7,77.4 M1524.3,72.8v-7.5h13.1v-4.1h-13.1v-7h14.7V50h-19.7v27h20.3
			v-4.2H1524.3z M1574.7,77l0-27h-4.1L1560,67.9L1549.3,50h-4.1v27h4.8V59.3l8.9,14.6h2.2l8.9-14.8l0,17.9H1574.7z"/>
		<path fill-rule="evenodd" clip-rule="evenodd" fill="#04592E" d="M547.8-94.1c-6.1,0-6.6,1.3-10.2,6.9
			C529-73.7,520.3-56.6,514-38.8l10.4,25.7c-6.9,29.8-9.7,49.1-9.7,57.2c0,20.6,12.9,33.3,23.7,33.3h1.8
			C558-4,576.3-48.5,576.3-56.9c0-3.3-5.1-19.6-15.3-34.1c-2-2.8-3.8-3.1-7.6-3.1H547.8z M586.3-129.7c0-12.1-9.8-21.9-21.9-21.9
			c-12.1,0-21.9,9.8-21.9,21.9c0,12.1,9.8,21.9,21.9,21.9C576.5-107.9,586.3-117.7,586.3-129.7 M613.4-6.8l13.7-57.5h3.8
			c20.6,0,36.6,5.6,47,15.3L613.4-6.8z M713.1,11.8c-3.3-3.1-17.8-5.8-43.5-7.6c21.1-8.6,37.1-16.8,48.3-26.4l3.8-28
			c-24.7-31.8-59.5-48.6-102-48.6c-8.4,0-17,0.8-25.4,2.3c1,26.9-2,32.3,12.2,32.6c-5.9,21.9-11.2,45.8-15.5,71.5
			c-3,0.3-5.3,6.9-5.3,15.8c0,1.8,1.8,3.3,4.8,5.9v5.6c0,9.4,1,18.8,3.6,28.2l10.7-5.4c1.8-8.4,3.3-18,4.8-28.5
			c14.2-1.8,26.5-2.6,36.6-2.6c17,0,31.3,1.3,43.5,5.6c-7.6,6.6-23.9,13.2-47.6,16.8c0-3.3-1-5.3-2.3-5.3c-9.9,0-26.2,18-26.2,23.6
			c0,1.8,3.6,3.1,10.4,3.1c16,0,42.2-4.3,69.7-15c22.1-8.4,31.3-19.6,31.3-22.6C725.1,30.6,720.2,18.6,713.1,11.8 M844.6-14.7
			c0,4.8-6.1,18-20.2,32.3c-13.4,14-26.7,23.2-42.2,27V43c0-1.5-0.5-5.3-0.5-10.9c0-15,5.6-39.9,17-75
			C828.8-37.3,844.6-25.9,844.6-14.7 M835.7,52.2c23.1-29.8,35.1-64.1,35.1-92.1c0-41.7-24.2-51.9-89.6-53.4l-5.8,11.7
			c-4.1,0.3-8.4,0.8-13.2,1.3l-13.7,28.8c5.3,0.5,10.4,1.3,15.3,2C749-17.7,742.3,5.2,742.3,18.4c0,17.6,8.7,30.5,26.7,43.7
			c12.5,9.2,23.7,13,30,13C811.5,75.1,824,67.4,835.7,52.2"/>
		<path fill="#04592E" d="M895.4-67.3c-1.7-0.7-3.2-2-4-3.7c-5.5-12.2-7.7-25.6-7.7-26.6c0-1,2.5-1.2,7.7-1.2
			c32.8,0,62.4,6,88.3,17.4c24.9,17.9,38.8,51.5,38.8,70.6c0,19.9-32.1,37.8-89,42.3l-5.5-6.5l-6.5,29.8l6.5,6.7l-2.5,7.2
			c-14.2,5.5-22.1,8.7-23.6,8.7c-1,0-1.2-1.5-1.2-4.5c0-0.2,0.2-1.2,0.2-3c0-24.1,1-42.3,2.2-54c-3.5-1.5-11.7-17.7-11.7-18.4
			c0-0.7,1.2-1.5,3.2-2l12.9-3.2c2.2-13.7,4.5-24.9,7.2-33.6c10.7-9.7,19.4-15.2,24.6-16.7C912.8-66.1,898.4-66.3,895.4-67.3
			 M980.4-32.8c-11.2-9.2-25.6-17.7-42.8-24.4l-8.2,43.5C954.6-19.3,971.7-25.8,980.4-32.8"/>
		<path fill="#04592E" d="M1027.5,12c-1-0.7-1.5-1.2-1.5-1.7c0,0,0.2-1,1-2.7l39-94c0.7-2,0.5-2,3.2-2.7l8.5-2l1.7-4.7
			c9.7-2,17.2-2.5,22.1-2.5c5.7,0,6.5,0.5,6.5,8v6.2l-3.5,1.5c-17.4,40-28.3,72.4-28.3,102c0,4.5,0.2,9.5,1.5,14.4
			c4.5,1.7,9.2,2,14.4,2c22.4,0,33.1-9,35.8-9c0.5,0,0.5,0,0.5,0.7c0,2.2-1.7,8-3.5,17.2c-25.9,17.2-49.7,24.9-64.9,24.9
			c-18.7,0-28.6-13.7-28.6-40c0-4.5,0.5-9,1.2-13.4L1027.5,12z"/>
	</g>
</g>
<g id="HU" display="none">
	<g display="inline">
		<path fill="#F48120" d="M1285.2-30.2c-3.1-4.2-7.3-7.1-12.9-9l-1.2-0.4v-3.1l1-0.5c4.6-2,8.2-4.9,10.9-8.6
			c2.6-3.6,3.9-8.1,3.9-13.3c0-5.1-1.5-9.8-4.3-13.9c-2.9-4.1-7-7.4-12.1-9.8c-5.2-2.4-11.2-3.6-17.9-3.6h-0.8v15.2
			c4,0.4,7.5,1.5,10.3,3.5c3.6,2.5,5.5,6.3,5.5,11.3c0,5-1.7,8.9-5.2,11.6c-2.9,2.3-6.4,3.6-10.5,3.9v1.5c0,6.1,3.8,11.6,9.5,13.8
			c0.8,0.3,1.6,0.7,2.3,1c4.2,2.2,6.4,6.5,6.4,12.9c0,5.5-1.9,9.8-5.6,12.6c-3.1,2.4-7.4,3.7-12.7,4v15.1h0.8
			c7.5,0,14.2-1.3,19.8-3.7c5.5-2.5,9.9-5.9,12.9-10.3c3-4.3,4.5-9.3,4.5-14.7C1289.8-21,1288.3-26.2,1285.2-30.2L1285.2-30.2z"/>
		<path fill="#04592E" d="M1243.3-90.3c-16.7,5.2-50.3,30-50.3,49.3c18.6,0,38-21.5,50.3-34.4V-90.3z"/>
		<path fill="#F48120" d="M1361.5-87.6c-5.4-3.1-11.5-4.7-18-4.7h-2.2h-2.2c-6.5,0-12.5,1.6-18,4.7c-5.4,3.2-9.8,7.5-12.9,12.9
			c-3.1,5.4-4.7,11.5-4.7,18.1v35c0,6.6,1.6,12.7,4.7,18.1c3.2,5.4,7.5,9.7,12.9,12.8c3.7,2.1,7.7,3.5,11.9,4.2V4.9
			c0-4.1-1.8-7.9-4.7-10.8l0,0c-3.5-3.5-5.2-7.9-5.2-13v-40.2c0-5.1,1.8-9.5,5.2-13c3.5-3.5,7.9-5.3,13-5.3s9.5,1.8,13,5.3
			c3.5,3.5,5.2,7.9,5.2,13v40.2c0,5.1-1.8,9.5-5.2,13l0,0c-2.9,2.9-4.7,6.7-4.7,10.8v8.7c4.2-0.7,8.2-2.1,11.9-4.2
			c5.4-3.1,9.7-7.4,12.9-12.8c3.1-5.4,4.7-11.5,4.7-18.1v-35c0-6.6-1.6-12.7-4.7-18.1C1371.2-80.1,1366.9-84.5,1361.5-87.6"/>
		<path fill="#04592E" d="M1243.3,14.1c-16.7-5.2-50.3-30-50.3-49.3c18.6,0,38,21.5,50.3,34.4V14.1z"/>
		<path fill="#04592E" d="M1481-120.5l-21.1,19.6h-12.8l11-19.6H1481z M1485.3-92.3v19.4h-32.6v21h23.3v19.4h-23.3v23.1h-1.1
			c-4.2-0.2-8-2-11.5-5.5c-3.2-3.2-5.5-7.1-6.8-11.7v-45.1c0-5.7,2-10.6,6.1-14.6c4-4.1,8.9-6.1,14.6-6.1H1485.3z M1485.3-5.4v19.5
			H1454c-5.7,0-10.6-2-14.6-6.1c-4.1-4-6.1-8.9-6.1-14.6v-17.2c1.1,5.2,3.1,9.4,6,12.5c4,4.4,9.4,6.3,16.3,5.9H1485.3z M1492-92.3
			L1515,6.4c1.2,5.1,4.4,7.7,9.7,7.7c5.2,0,8.5-2.6,9.7-7.7l23.1-98.7h-19.9l-17.7,76.7l3.1-29.3l-11.2-47.4H1492z"/>
		<path fill="#04592E" d="M1201.2,71.9l18.8-23v-4h-26.4v5h18.5l-18.8,23v4h27.3v-5H1201.2z M1238.5,41.8c1.6,0,2.7-1.1,2.7-2.7
			c0-1.6-1.2-2.8-2.7-2.8c-1.6,0-2.7,1.1-2.7,2.8C1235.7,40.7,1236.9,41.8,1238.5,41.8 M1247.3,41.8c1.6,0,2.7-1.1,2.7-2.7
			c0-1.6-1.2-2.8-2.7-2.8c-1.6,0-2.7,1.1-2.7,2.8C1244.6,40.7,1245.8,41.8,1247.3,41.8 M1242.9,77.4c9.9,0,17.2-6.9,17.2-16.5
			s-7.3-16.5-17.2-16.5c-9.9,0-17.2,7-17.2,16.5C1225.7,70.4,1233,77.4,1242.9,77.4 M1242.9,72.2c-6.4,0-11.2-4.7-11.2-11.2
			s4.8-11.2,11.2-11.2c6.4,0,11.2,4.7,11.2,11.2S1249.3,72.2,1242.9,72.2 M1268.7,76.9h22.7v-5h-16.7v-27h-5.9V76.9z M1298.4,76.9
			h14c10.4,0,17.5-6.4,17.5-16s-7.1-16-17.5-16h-14V76.9z M1304.3,71.9V50h7.8c7.1,0,11.7,4.3,11.7,11s-4.6,11-11.7,11H1304.3z
			 M1361,77.4c8.8,0,12.9-4.4,12.9-9.5c0-11.7-19-7.3-19-14.1c0-2.4,2-4.3,6.9-4.3c2.8,0,5.9,0.8,8.8,2.5l1.9-4.6
			c-2.8-1.8-6.8-2.8-10.6-2.8c-8.8,0-12.9,4.4-12.9,9.6c0,11.9,19,7.4,19,14.3c0,2.4-2.1,4.2-7.1,4.2c-3.9,0-8-1.5-10.6-3.5
			l-2.1,4.6C1351,75.8,1356,77.4,1361,77.4 M1387.5,71.9l18.8-23v-4H1380v5h18.5l-18.8,23v4h27.3v-5H1387.5z M1413.8,42.3h4.9
			l7.9-6.3h-6.7L1413.8,42.3z M1414.7,76.9h5.9v-32h-5.9V76.9z M1454.6,44.9l-10.7,24.7l-10.6-24.7h-6.4l14,32h5.9l13.9-32H1454.6z
			 M1490.2,44.9l-10.7,24.7l-10.6-24.7h-6.4l14,32h5.9l13.9-32H1490.2z M1507.8,72v-8.8h15.4v-4.9h-15.4v-8.3h17.4v-5h-23.3v32h24
			v-5H1507.8z M1534.7,76.9h22.7v-5h-16.7v-27h-5.9V76.9z"/>
		<path fill-rule="evenodd" clip-rule="evenodd" fill="#04592E" d="M547.8-94.1c-6.1,0-6.6,1.3-10.2,6.9
			C529-73.7,520.3-56.6,514-38.8l10.4,25.7c-6.9,29.7-9.7,49.1-9.7,57.2c0,20.6,12.9,33.3,23.7,33.3h1.8
			C558-4,576.3-48.5,576.3-56.9c0-3.3-5.1-19.6-15.3-34.1c-2-2.8-3.8-3.1-7.6-3.1H547.8z M586.3-129.7c0-12.1-9.8-21.9-21.9-21.9
			c-12.1,0-21.9,9.8-21.9,21.9c0,12.1,9.8,21.9,21.9,21.9C576.5-107.9,586.3-117.7,586.3-129.7 M613.4-6.8l13.7-57.5h3.8
			c20.6,0,36.6,5.6,47,15.3L613.4-6.8z M713.1,11.8c-3.3-3.1-17.8-5.8-43.5-7.6c21.1-8.6,37.1-16.8,48.3-26.4l3.8-28
			c-24.7-31.8-59.5-48.6-102-48.6c-8.4,0-17,0.8-25.4,2.3c1,26.9-2,32.3,12.2,32.6c-5.9,21.9-11.2,45.8-15.5,71.5
			c-3,0.3-5.3,6.9-5.3,15.8c0,1.8,1.8,3.3,4.8,5.9v5.6c0,9.4,1,18.8,3.6,28.2l10.7-5.4c1.8-8.4,3.3-18,4.8-28.5
			c14.2-1.8,26.5-2.6,36.6-2.6c17,0,31.3,1.3,43.5,5.6c-7.6,6.6-23.9,13.2-47.6,16.8c0-3.3-1-5.3-2.3-5.3c-9.9,0-26.2,18-26.2,23.6
			c0,1.8,3.6,3.1,10.4,3.1c16,0,42.2-4.3,69.7-15c22.1-8.4,31.3-19.6,31.3-22.6C725.1,30.6,720.2,18.6,713.1,11.8 M844.6-14.7
			c0,4.8-6.1,18-20.2,32.3c-13.4,14-26.7,23.1-42.2,27V43c0-1.5-0.5-5.3-0.5-10.9c0-15,5.6-39.9,17-75
			C828.8-37.3,844.6-25.9,844.6-14.7 M835.7,52.2c23.1-29.8,35.1-64.1,35.1-92.1c0-41.7-24.2-51.9-89.6-53.4l-5.8,11.7
			c-4.1,0.3-8.4,0.8-13.2,1.3l-13.7,28.8c5.3,0.5,10.4,1.3,15.3,2C749-17.7,742.3,5.2,742.3,18.4c0,17.6,8.7,30.5,26.7,43.7
			c12.5,9.2,23.7,13,30,13C811.5,75.1,824,67.4,835.7,52.2"/>
		<path fill="#04592E" d="M914.6-74.7c14-7.3,21.3-11.4,22.7-11.4c1.7,0,5.1,3.6,5.1,5.3c0,2.9-5.6,23.9-8.9,62.9l30.5-0.2
			c11.6-21.5,22.5-46,35.1-72.8c16.2-6,26.4-7.5,28.3-7.5c3.1,0,2.7,5.8,3.1,18.6c-14.8,59.3-25.9,106.4-33.9,141.7L984,66.8
			c-3.1,7-3.4,10.6-5.8,10.6c-6,0-5.3-1.5-6.3-7.3c-4.1-23.9-5.6-39.9-5.6-47.4v-3.9c-13.1,0-25.4-2.7-36.3-7.7
			c-0.7,5.8-1.2,12.8-1.2,21c0,1.5,0.5,2.2,1.7,2.2c1.2,0,4.4-1.9,7.5-6.8c4.6-0.7,7-1.5,7.7-1.5s1.2,0.2,1.2,0.7
			c0,1-1.9,4.6-5.6,10.9c-8,14.3-11.4,21.5-14.3,21.5c-4.1,0-15.7-4.8-17.4-8c-3.4-6-9.2-23.9-10.2-50.6c-4.8-1.9-4.8-2.9-5.6-4.8
			l-4.1-9.2c-0.2-0.7-0.2-1.2-0.2-1.5c0-1,2.2-4.4,4.1-4.4c0.5,0,2.7,0.2,6.3,0.5C902.2-35.3,906.8-54.2,914.6-74.7"/>
		<path fill="#04592E" d="M1074.2-89.7c11.4-1.2,17.2-2.9,18.1-2.9c0.7,0,1.2,0.5,1.2,1l2.2,22.7c0.2,1.2,0.2,2.2,0.2,2.9
			c0,6-16,37-16,91.7c0,3.9,0.2,8.5,1,13.1c19.8-14,47.2-49.3,64.8-90.5c2.7-6,3.4-9.4,5.1-10.2c11.4-4.6,18.4-6.8,18.6-6.8
			c0.7,0,1,1,1,2.9c0,6.3-3.6,35.8-17.4,72.3c-10.6,28.1-21.5,48.1-33.6,60.2c-4.6,0.5-8.7,0.7-11.6,0.7c-5.6,0-13.3-0.7-23.5-2.2
			c-15.7-4.8-30.7-17.9-37.7-30.2c-4.4-7.7-4.6-15-4.6-23.5c0-28.8,3.1-57.6,8.5-83.7c1.2-6,1-5.3,4.8-6.3l15.7-4.1L1074.2-89.7z"/>
	</g>
</g>
<g id="CZ" display="none">
	<g display="inline">
		<path fill="#F48120" d="M1305.4-30.4c-3.1-4.2-7.3-7.1-12.8-9l-1.2-0.4v-3.1l1-0.5c4.6-2,8.2-4.9,10.9-8.6
			c2.6-3.6,3.9-8.1,3.9-13.3c0-5.1-1.5-9.8-4.3-13.8c-2.9-4.1-7-7.4-12.1-9.8c-5.2-2.4-11.2-3.6-17.9-3.6h-0.8v15.2
			c4,0.4,7.4,1.5,10.3,3.5c3.6,2.5,5.5,6.3,5.5,11.3c0,5-1.7,8.9-5.2,11.6c-2.9,2.3-6.4,3.6-10.5,3.9v1.5c0,6.1,3.7,11.6,9.5,13.7
			c0.8,0.3,1.6,0.7,2.3,1c4.2,2.2,6.4,6.5,6.4,12.9c0,5.5-1.9,9.7-5.6,12.6c-3.1,2.4-7.4,3.7-12.7,4v15.1h0.8
			c7.5,0,14.2-1.3,19.8-3.7c5.5-2.5,9.9-5.9,12.9-10.3c3-4.3,4.5-9.3,4.5-14.7C1310-21.1,1308.5-26.3,1305.4-30.4L1305.4-30.4z"/>
		<path fill="#04592E" d="M1263.5-90.4c-16.7,5.2-50.2,29.9-50.2,49.2c18.6,0,38-21.4,50.2-34.4V-90.4z"/>
		<path fill="#F48120" d="M1381.6-87.7c-5.4-3.1-11.4-4.7-17.9-4.7h-2.2h-2.2c-6.5,0-12.5,1.6-17.9,4.7c-5.4,3.2-9.8,7.5-12.9,12.9
			c-3.1,5.4-4.7,11.5-4.7,18.1v35c0,6.6,1.6,12.7,4.7,18.1c3.1,5.4,7.5,9.7,12.9,12.8c3.7,2.1,7.7,3.5,11.9,4.2V4.6
			c0-4.1-1.8-7.9-4.7-10.8l0,0c-3.5-3.5-5.2-7.9-5.2-13v-40.1c0-5.1,1.8-9.5,5.2-13c3.5-3.5,7.8-5.3,13-5.3c5.1,0,9.5,1.8,13,5.3
			c3.5,3.5,5.2,7.9,5.2,13v40.1c0,5.1-1.8,9.5-5.2,13l0,0c-2.9,2.9-4.7,6.7-4.7,10.8v8.7c4.2-0.7,8.2-2.1,11.9-4.2
			c5.4-3.1,9.7-7.4,12.9-12.8c3.1-5.4,4.7-11.5,4.7-18.1v-35c0-6.6-1.6-12.7-4.7-18.1C1391.3-80.2,1387-84.6,1381.6-87.7"/>
		<path fill="#04592E" d="M1263.5,13.8c-16.7-5.2-50.2-29.9-50.2-49.2c18.6,0,38,21.4,50.2,34.4V13.8z"/>
		<path fill="#04592E" d="M1474,13.8c-5.7,0-10.6-2-14.6-6.1c-4.1-4-6.1-8.9-6.1-14.6V-24c1.1,5,3.1,9.1,5.8,12.2
			c3.8,4.3,9,6.4,15.6,6.3h30.6v19.3H1474z M1471.6-9.3c-4.1-0.2-8-2-11.5-5.6c-3.2-3.3-5.5-7.2-6.8-11.8v-65.7h19.4v83H1471.6z
			 M1569-92.4V-73h-32.5v21h23.3v19.4h-23.3v23.1h-1.1c-4.1-0.2-8-2-11.5-5.5c-3.2-3.2-5.5-7.1-6.8-11.7v-45c0-5.7,2-10.6,6.1-14.6
			c4-4,8.8-6.1,14.6-6.1H1569z M1569-5.6v19.4h-31.3c-5.7,0-10.6-2-14.6-6.1c-4.1-4-6.1-8.9-6.1-14.6V-24c1.1,5.2,3.1,9.4,6,12.5
			c4,4.3,9.4,6.3,16.3,5.9H1569z M1633.8-92.4V-73H1617v86.8h-19.3v-84L1610-73h-29.1v-19.4H1633.8z"/>
		<path fill="#04592E" d="M1224.2,77.4c7.1,0,10.5-3.6,10.5-7.7c0-9.5-15.4-5.9-15.4-11.5c0-2,1.6-3.5,5.6-3.5c2.3,0,4.8,0.7,7.2,2
			l1.5-3.7c-2.3-1.5-5.5-2.3-8.6-2.3c-7.1,0-10.5,3.6-10.5,7.8c0,9.6,15.4,6,15.4,11.6c0,1.9-1.7,3.4-5.8,3.4
			c-3.2,0-6.5-1.2-8.6-2.9l-1.7,3.7C1216.1,76.1,1220.1,77.4,1224.2,77.4 M1244.3,73v-7.2h12.5v-4h-12.5v-6.8h14.1v-4h-19v26h19.5
			v-4H1244.3z M1279,72.9l15.3-18.7v-3.2h-21.4v4.1h15l-15.3,18.7V77h22.2v-4.1H1279z M1304,73v-7.2h12.5v-4H1304v-6.8h14.1v-4h-19
			v26h19.5v-4H1304z M1324,77h18.4v-4.1h-13.6V51.1h-4.8V77z M1351.1,73v-7.2h12.5v-4h-12.5v-6.8h14.1v-4h-19v26h19.5v-4H1351.1z
			 M1389.4,51.1v17.6l-14.3-17.6h-4v26h4.8V59.4l14.3,17.6h4v-26H1389.4z M1417.3,43.9h-5.5l-5,5.1h4L1417.3,43.9z M1422.6,51.1
			h-4.8l-7.7,12.7l-7.6-12.7h-5.2l10.2,16.9V77h4.8v-9.2L1422.6,51.1z M1453.8,77l0-26h-4l-10.1,17.2l-10.3-17.2h-4v26h4.6V60
			l8.5,14h2.2l8.5-14.3l0,17.2H1453.8z M1479.1,77.4c7.1,0,10.5-3.6,10.5-7.7c0-9.5-15.4-5.9-15.4-11.5c0-2,1.6-3.5,5.6-3.5
			c2.3,0,4.8,0.7,7.2,2l1.5-3.7c-2.3-1.5-5.5-2.3-8.6-2.3c-7.1,0-10.5,3.6-10.5,7.8c0,9.6,15.4,6,15.4,11.6c0,1.9-1.7,3.4-5.7,3.4
			c-3.2,0-6.5-1.2-8.6-2.9l-1.7,3.7C1471,76.1,1475,77.4,1479.1,77.4 M1516.6,77l-6-8.5c3.5-1.4,5.5-4.3,5.5-8.2
			c0-5.8-4.2-9.2-11.1-9.2h-10.7v26h4.8v-7.6h5.9c0.3,0,0.7,0,1,0l5.3,7.6H1516.6z M1511.3,60.3c0,3.3-2.2,5.2-6.4,5.2h-5.6V55.1
			h5.6C1509.1,55.1,1511.3,57,1511.3,60.3 M1521.5,77h11.4c8.4,0,14.2-5.2,14.2-13c0-7.8-5.8-13-14.2-13h-11.4V77z M1526.3,72.9
			V55.1h6.3c5.8,0,9.5,3.5,9.5,8.9c0,5.4-3.7,8.9-9.5,8.9H1526.3z M1564.2,77.4c4.3,0,7.9-1.5,10.3-4.3l-3.1-3
			c-1.9,2.1-4.2,3.1-6.9,3.1c-5.4,0-9.3-3.8-9.3-9.1c0-5.3,3.9-9.1,9.3-9.1c2.7,0,5,1,6.9,3l3.1-2.9c-2.4-2.8-6-4.3-10.3-4.3
			c-8,0-13.9,5.6-13.9,13.4C1550.3,71.8,1556.2,77.4,1564.2,77.4 M1584,73v-7.2h12.5v-4H1584v-6.8h14.1v-4h-19v26h19.5v-4H1584z
			 M1632.5,77l0-26h-4l-10.1,17.2L1608,51.1h-4v26h4.6V60l8.5,14h2.2l8.5-14.3l0,17.2H1632.5z"/>
		<path fill-rule="evenodd" clip-rule="evenodd" fill="#04592E" d="M547.7-94.2c-6.1,0-6.6,1.3-10.2,6.9C529-73.8,520.3-56.8,514-39
			l10.4,25.6c-6.9,29.7-9.7,49-9.7,57.2c0,20.6,12.9,33.3,23.6,33.3h1.8c17.8-81.3,36-125.7,36-134.1c0-3.3-5.1-19.6-15.2-34.1
			c-2-2.8-3.8-3.1-7.6-3.1H547.7z M586.2-129.8c0-12.1-9.8-21.9-21.9-21.9c-12.1,0-21.8,9.8-21.8,21.9c0,12.1,9.8,21.8,21.8,21.8
			C576.4-108,586.2-117.7,586.2-129.8 M613.3-7L627-64.4h3.8c20.6,0,36.6,5.6,47,15.2L613.3-7z M712.9,11.5
			c-3.3-3.1-17.8-5.8-43.4-7.6c21.1-8.6,37.1-16.7,48.3-26.4l3.8-27.9C696.8-82.2,662-99,619.6-99c-8.4,0-17,0.8-25.4,2.3
			c1,26.9-2,32.3,12.2,32.5c-5.9,21.9-11.2,45.7-15.5,71.4c-3,0.3-5.3,6.9-5.3,15.7c0,1.8,1.8,3.3,4.8,5.9v5.6
			c0,9.4,1,18.8,3.6,28.2l10.7-5.4c1.8-8.4,3.3-18,4.8-28.4c14.2-1.8,26.4-2.6,36.6-2.6c17,0,31.2,1.3,43.4,5.6
			c-7.6,6.6-23.9,13.2-47.5,16.8c0-3.3-1-5.3-2.3-5.3c-9.9,0-26.1,18-26.1,23.6c0,1.8,3.6,3.1,10.4,3.1c16,0,42.2-4.3,69.6-15
			c22.1-8.4,31.2-19.6,31.2-22.6C724.8,30.3,719.9,18.4,712.9,11.5 M844.2-14.9c0,4.8-6.1,18-20.1,32.2
			c-13.4,14-26.6,23.1-42.1,26.9v-1.5c0-1.5-0.5-5.3-0.5-10.9c0-15,5.6-39.9,17-74.9C828.4-37.5,844.2-26.1,844.2-14.9 M835.3,51.9
			c23.1-29.7,35-64,35-91.9c0-41.7-24.1-51.8-89.5-53.4L775-81.7c-4.1,0.3-8.4,0.8-13.2,1.3l-13.7,28.7c5.3,0.5,10.4,1.3,15.2,2
			C748.6-17.9,742,4.9,742,18.1c0,17.5,8.6,30.5,26.7,43.7c12.5,9.1,23.6,13,30,13C811.1,74.8,823.5,67.1,835.3,51.9"/>
		<path fill="#04592E" d="M1023.1-99.6c3.6,0,4.7,3.6,4.7,16.9c0,6.5-3.4,16.1-8.3,29.3c-64.6,13.8-104.3,42-109.8,63.3
			c11.4,4.7,25.9,5.4,44.6,5.4c43.1,0,68.2-7.5,72.1-7.5c0.8,0,1,0.3,1,0.8v0.8l-2.1,14.3c-5.2,6.5-13.2,11.2-24.4,15l-0.5,18.7
			c-16.9,8-40,12.5-69,12.5c-16.9,0-26.7-1.6-29.3-3.4C895.7,61.8,883.5,35,883.5,1c0-9.1,0.8-14.5,3.1-17.6
			c13.5-17.4,29.8-29.3,51.6-38.9c-10.9-0.3-20.2-0.5-28-0.8C962.1-85.1,999.7-99.6,1023.1-99.6"/>
		<path fill="#04592E" d="M1085.6,33.7c18.4,13,32.7,18.7,41,18.7c22.3,0,38.7-10.6,43.8-10.6c0.5,0,2.1,0.8,4.2,2.3
			c8.3,5.7,13,7.5,13,8.8c0,1.6-4.4,3.4-12.5,6.2c-35.8,13.2-63.1,17.9-77.1,17.9c-13,0-23.6-3.9-33.5-12.2
			c-15.3-12.7-23.9-27-23.9-36.3c0-9.9,16.1-32.2,48.5-59.2c10.4-8.6,18.7-15.8,33.5-17.1v-1.6c-39.7-6.2-60.5-3.6-63.8-8.3
			l-14-19.5c-0.5-0.5-0.5-1.3-0.5-1.6c0-2.3,20.2-8,57.1-8c9.9,0,18.2,0.3,25.2,0.8c1.6-6.7,2.6-7.5,7.3-7.5h5.4
			c2.1,0,3.4,0.3,5.4,1.8l8.8,6c26.5,3.9,37.4,6.7,37.4,13.2c0,20-7,31.4-20.8,34.5C1137.2-14.8,1109.5,9.4,1085.6,33.7"/>
	</g>
</g>
<g id="RO" display="none">
	<g display="inline">
		<path fill="#F48120" d="M1291.4-30.5c-3.1-4.2-7.3-7.1-12.8-9l-1.2-0.4V-43l1-0.5c4.5-2,8.2-4.9,10.9-8.6
			c2.6-3.6,3.9-8.1,3.9-13.3c0-5.1-1.5-9.8-4.3-13.8c-2.9-4.1-7-7.4-12.1-9.8c-5.2-2.4-11.2-3.6-17.9-3.6h-0.8v15.1
			c4,0.4,7.4,1.5,10.3,3.5c3.6,2.5,5.4,6.3,5.4,11.3c0,5-1.7,8.9-5.2,11.6c-2.9,2.3-6.4,3.6-10.5,3.9v1.5c0,6.1,3.7,11.6,9.4,13.7
			c0.8,0.3,1.6,0.7,2.3,1c4.2,2.2,6.4,6.5,6.4,12.9c0,5.5-1.9,9.7-5.6,12.5c-3.1,2.4-7.4,3.7-12.6,4v15.1h0.8
			c7.5,0,14.2-1.3,19.7-3.7c5.5-2.5,9.9-5.9,12.8-10.3c3-4.3,4.5-9.3,4.5-14.7C1296-21.3,1294.5-26.5,1291.4-30.5L1291.4-30.5z"/>
		<path fill="#07592E" d="M1249.6-90.5c-16.7,5.2-50.2,29.9-50.2,49.2c18.6,0,37.9-21.4,50.2-34.4V-90.5z"/>
		<path fill="#F48120" d="M1367.5-87.8c-5.4-3.1-11.4-4.7-17.9-4.7h-2.2h-2.2c-6.5,0-12.5,1.6-17.9,4.7c-5.4,3.1-9.7,7.5-12.9,12.9
			c-3.1,5.4-4.7,11.5-4.7,18.1v34.9c0,6.6,1.6,12.7,4.7,18.1c3.1,5.4,7.5,9.7,12.9,12.8c3.7,2.1,7.7,3.5,11.9,4.2V4.5
			c0-4.1-1.8-7.9-4.7-10.8l0,0c-3.5-3.5-5.2-7.9-5.2-13v-40.1c0-5.1,1.8-9.5,5.2-13c3.5-3.5,7.8-5.3,13-5.3s9.5,1.8,13,5.3
			c3.5,3.5,5.2,7.9,5.2,13v40.1c0,5.1-1.8,9.5-5.2,13l0,0c-2.9,2.9-4.7,6.7-4.7,10.8v8.7c4.2-0.7,8.2-2.1,11.9-4.2
			c5.4-3.1,9.7-7.4,12.9-12.8c3.1-5.4,4.7-11.5,4.7-18.1v-34.9c0-6.6-1.6-12.7-4.7-18.1C1377.3-80.3,1372.9-84.6,1367.5-87.8"/>
		<path fill="#07592E" d="M1249.6,13.7c-16.7-5.2-50.2-29.9-50.2-49.1c18.6,0,37.9,21.4,50.2,34.4V13.7z"/>
		<path fill="#07592E" d="M1450.3-92.5c7.6,0,14,2.7,19.4,8.1c5.4,5.3,8.1,11.8,8.1,19.4v51.2c0,7.4-2.6,13.8-7.7,19.1
			c-5.1,5.3-11.4,8.1-18.8,8.4c4.8-5.6,7.1-12.3,7.1-20.3c0-1.1,0-2.2-0.1-3.3c-0.6,6.4-2.6,11.9-6,16.4c-3.4,4.4-7.5,6.8-12.1,7.2
			h-19.6v-88.1l19.4-18.1H1450.3z M1458.4-65c0-2.2-0.8-4.1-2.4-5.7c-1.6-1.6-3.5-2.4-5.7-2.4h-7.6l-2.8-17.8v85.2h10.4
			c2.2,0,4.1-0.8,5.7-2.3c1.6-1.6,2.4-3.5,2.4-5.7V-65z M1541.5-92.5v19.4H1509v21h23.2v19.4H1509v23.1h-1.1c-4.1-0.2-8-2-11.5-5.5
			c-3.2-3.2-5.5-7.1-6.8-11.7v-45c0-5.7,2-10.6,6.1-14.6c4-4,8.8-6.1,14.6-6.1H1541.5z M1541.5-5.7v19.4h-31.2
			c-5.7,0-10.6-2-14.6-6.1c-4.1-4-6.1-8.9-6.1-14.6v-17.2c1.1,5.2,3.1,9.3,6,12.5c4,4.3,9.4,6.3,16.3,5.9H1541.5z"/>
		<path fill-rule="evenodd" clip-rule="evenodd" fill="#07592E" d="M547.7-94.2c-6.1,0-6.6,1.3-10.1,6.9
			C529-73.9,520.3-56.9,514-39.1l10.4,25.6c-6.9,29.7-9.6,49-9.6,57.1c0,20.5,12.9,33.2,23.6,33.2h1.8c17.8-81.2,36-125.6,36-134
			c0-3.3-5.1-19.6-15.2-34c-2-2.8-3.8-3.1-7.6-3.1H547.7z M586.1-129.8c0-12.1-9.7-21.8-21.8-21.8c-12,0-21.8,9.7-21.8,21.8
			c0,12.1,9.8,21.8,21.8,21.8C576.3-108,586.1-117.7,586.1-129.8 M613.2-7.2l13.7-57.3h3.8c20.5,0,36.5,5.6,46.9,15.2L613.2-7.2z
			 M712.6,11.4c-3.3-3.1-17.8-5.8-43.4-7.6c21-8.6,37-16.7,48.2-26.4l3.8-27.9C696.6-82.3,661.9-99,619.5-99c-8.3,0-17,0.8-25.4,2.3
			c1,26.9-2,32.2,12.2,32.5c-5.9,21.8-11.2,45.7-15.5,71.3c-3,0.3-5.3,6.9-5.3,15.7c0,1.8,1.8,3.3,4.8,5.9v5.6
			c0,9.4,1,18.8,3.6,28.2l10.6-5.4c1.8-8.3,3.3-18,4.8-28.4c14.2-1.8,26.4-2.6,36.5-2.6c17,0,31.2,1.3,43.4,5.6
			c-7.6,6.6-23.8,13.2-47.5,16.8c0-3.3-1-5.3-2.3-5.3c-9.9,0-26.1,18-26.1,23.6c0,1.8,3.6,3.1,10.4,3.1c16,0,42.1-4.3,69.5-15
			c22-8.4,31.2-19.5,31.2-22.6C724.5,30.1,719.7,18.2,712.6,11.4 M843.8-15c0,4.8-6.1,18-20.1,32.2c-13.4,14-26.6,23.1-42.1,26.9
			v-1.5c0-1.5-0.5-5.3-0.5-10.9c0-15,5.6-39.8,17-74.8C828-37.6,843.8-26.2,843.8-15 M835,51.7C858,22,870-12.2,870-40.1
			c0-41.6-24.1-51.8-89.4-53.3l-5.8,11.7c-4.1,0.3-8.3,0.8-13.2,1.3l-13.7,28.7c5.3,0.5,10.4,1.3,15.2,2
			c-14.7,31.7-21.3,54.6-21.3,67.7c0,17.5,8.6,30.5,26.7,43.6c12.4,9.1,23.6,12.9,29.9,12.9C810.8,74.5,823.2,66.9,835,51.7"/>
		<path fill="#07592E" d="M891.4-90.6c16.7-1.6,30.1-3.7,40-7.8c42.7,5.5,73,14.9,90.3,27.5c5.8,22.2,7.8,36.9,7.8,42.9
			c0,7.6-1.8,11.3-6.8,13.3c-6.8,2.9-27.2,4.7-61.5,4.7c-13.3,0-23.5-0.5-29.8-1c25.6,28.5,56.5,48.9,95.5,63.6l-1,6.3
			c-14.4,3.4-25.1,9.2-32.7,18.6c-26.4-7.3-51.8-20.9-75.6-40.6c-2.9,24.6-6.3,37.2-7.8,37.2c-3.9,0-9.9-3.7-18.8-9.7
			c-2.9-1.8-3.4-5-3.4-10.5c0-3.4,0.3-7.6,0.3-12.8c0-36.6,5.5-73.3,16.7-110.4c-5.2-2.1-10.5-3.7-16.2-5L891.4-90.6z M1003.2-36.4
			c-13.6-11.2-35.1-16.5-65.2-20.4l-8.1,37.2C963.6-22.3,989-29.1,1003.2-36.4"/>
		<path fill="#07592E" d="M1079-85.6l6-12c67.2,1.6,92.1,12,92.1,54.9c0,28.8-12.3,64.1-36.1,94.7c-12,15.7-24.9,23.5-37.7,23.5
			c-6.5,0-18.1-3.9-30.9-13.3c-18.6-13.6-27.5-27-27.5-45c0-13.6,6.8-37.2,22-69.9c-5-0.8-10.2-1.6-15.7-2.1l14.1-29.6
			C1070.4-84.8,1074.8-85.4,1079-85.6 M1085.6,31.3c0,5.8,0.5,9.7,0.5,11.3v1.6c16-3.9,29.6-13.3,43.4-27.7
			c14.4-14.6,20.7-28.3,20.7-33.2c0-11.5-16.2-23.3-47.1-29C1091.3-9.7,1085.6,15.9,1085.6,31.3"/>
		<path fill="#07592E" d="M1616.8-84.6c5.4,5.3,8.1,11.8,8.1,19.4v78.9h-19.4v-28.5h-28.6l12.4,2.8v25.7h-19.4v-78.9
			c0-7.6,2.7-14.1,8.1-19.4c5.4-5.4,11.9-8.1,19.5-8.1C1604.9-92.7,1611.4-90,1616.8-84.6 M1605.4-34.3v-30.9c0-2.4-0.9-5.4-2.7-8.9
			c-1.6-3.2-3.4-5.7-5.4-7.7c-3.1-3.2-6.9-5.6-11.4-7.3c1.6,0.9,4,2.9,7.2,6.2c2.9,2.9,5,6.2,6.3,9.9c-0.6-0.2-1.3-0.3-2-0.3
			c-2.3,0-4.2,0.8-5.8,2.4c-1.6,1.6-2.4,3.5-2.4,5.7v30.9H1605.4z"/>
		<path fill="#07592E" d="M1636.7,13.2v-96.3c0-2.7,0.9-4.9,2.8-6.8c1.9-1.9,4.2-2.8,6.8-2.8c4.2,0,7.1,1.9,8.8,5.7l18.5,41.1
			l2.7,27.2v-73.6h19.4V4c0,2.7-0.9,4.9-2.8,6.8c-1.9,1.9-4.2,2.8-6.8,2.8c-4.2,0-7.1-1.9-8.8-5.7l-18.5-41.1l-2.7-27.2v73.6H1636.7
			z"/>
		<rect x="1707.9" y="-92.7" fill="#07592E" width="19.4" height="106.4"/>
		<path fill="#07592E" d="M1201.3,58.5c0-8.3,7.1-15.3,15.6-15.3c4.4,0,8.3,1.9,11.2,4.8l-3.8,3.6c-1.8-2.1-4.5-3.5-7.3-3.5
			c-5.5,0-10.1,4.7-10.1,10.4c0,5.7,4.6,10.4,10.1,10.4c2.9,0,5.5-1.3,7.4-3.5l3.8,3.5c-2.8,3-6.8,4.8-11.2,4.8
			C1208.5,73.8,1201.3,66.8,1201.3,58.5"/>
		<path fill="#07592E" d="M1245.2,60.7v-17h5.4v16.8c0,4.9,3.2,8.5,7.7,8.5c4.5,0,7.7-3.5,7.7-8.5V43.7h5.3v17
			c0,7.7-5.4,13.2-13.1,13.2C1250.7,73.8,1245.2,68.4,1245.2,60.7"/>
		<rect x="1315.7" y="43.7" fill="#07592E" width="5.3" height="29.6"/>
		<polygon fill="#07592E" points="1340.6,43.7 1346,43.7 1361.7,64.5 1361.7,43.7 1367,43.7 1367,73.3 1361.7,73.3 1346,52.5 
			1346,73.3 1340.6,73.3 		"/>
		<rect x="1386.5" y="43.7" fill="#07592E" width="5.3" height="29.6"/>
		<polygon fill="#07592E" points="1411.4,43.7 1416.8,43.7 1426.6,61.8 1436.4,43.7 1441.7,43.7 1441.7,73.3 1436.4,73.3 
			1436.4,53.5 1426.6,71.6 1416.8,53.5 1416.8,73.3 1411.4,73.3 		"/>
		<path fill="#07592E" d="M1481.5,68h-14.3l-2.2,5.3h-6l12.4-29.6h6l12.4,29.6h-6L1481.5,68z M1474.3,40.8c-2.5,0-4.8-0.9-6.7-2.8
			l2.5-2.5c1.2,1.2,2.7,1.9,4.2,1.9s3.1-0.7,4.2-1.9l2.5,2.5C1479.2,39.9,1476.8,40.8,1474.3,40.8 M1479.6,63.3l-5.2-12.5l-5.2,12.5
			H1479.6z"/>
		<polygon fill="#07592E" points="1560.2,43.7 1547.9,73.3 1541.9,73.3 1529.5,43.7 1535.4,43.7 1544.8,66.2 1554.2,43.7 		"/>
		<polygon fill="#07592E" points="1582.5,48.6 1582.5,55.8 1597.8,55.8 1597.8,60.7 1582.5,60.7 1582.5,68.4 1599.4,68.4 
			1599.4,73.3 1577.1,73.3 1577.1,43.7 1599.4,43.7 1599.4,48.6 		"/>
		<path fill="#07592E" d="M1635.6,73.3l-7-10h-5.7v10h-5.4V43.7h12.9c6.3,0,11.1,4.1,11.1,9.8c0,4.5-2.9,7.9-7.2,9.3l7.4,10.5
			H1635.6z M1622.9,58.4h6.9c3.7,0,6.2-1.9,6.2-4.9c0-3-2.5-4.9-6.2-4.9h-6.9V58.4z"/>
		<path fill="#07592E" d="M1659.7,43.7h10.4c9.8,0,16.7,6.1,16.7,14.8c0,8.7-6.9,14.8-16.7,14.8h-10.4V43.7z M1670.7,68.4
			c6.3,0,10.7-4.1,10.7-10s-4.4-9.9-10.7-9.9h-5.6v19.9H1670.7z"/>
		<polygon fill="#07592E" points="1710.4,48.6 1710.4,55.8 1725.7,55.8 1725.7,60.7 1710.4,60.7 1710.4,68.4 1727.3,68.4 
			1727.3,73.3 1705,73.3 1705,43.7 1727.3,43.7 1727.3,48.6 		"/>
	</g>
</g>
</svg>
