<svg width="199.000000" height="39.000000" viewBox="0 0 199 39" fill="none" xmlns="http://www.w3.org/2000/svg" xmlns:xlink="http://www.w3.org/1999/xlink">
	<desc>
			Created with Pixso.
	</desc>
	<defs/>
	<path id="path" d="M13.62 12.14L13.62 2.67C13.94 2.39 14.15 1.99 14.15 1.53C14.15 0.69 13.45 0 12.59 0C11.73 0 11.04 0.69 11.04 1.53C11.04 1.99 11.25 2.39 11.56 2.67L11.56 12L8.53 12L8.53 8.6C8.53 8.03 8.06 7.58 7.49 7.58C6.92 7.58 6.46 8.03 6.46 8.6L6.46 12L4.15 12L4.15 10.12C4.15 9.27 3.46 8.59 2.6 8.59C1.75 8.59 1.05 9.27 1.05 10.12L1.05 12.29C0.43 12.65 0 13.29 0 14.05L0 22.32C0 23.45 0.31 24.88 0.7 25.5C1.09 26.12 1.41 27.54 1.41 28.67L1.41 36.94C1.41 38.07 2.34 39 3.47 39L11.52 39C12.65 39 13.58 38.07 13.58 36.94L13.58 28.67C13.58 27.54 13.9 26.12 14.29 25.5C14.68 24.88 14.99 23.45 14.99 22.32L15 14.05C14.99 13.16 14.42 12.43 13.62 12.14ZM13.58 22.07L1.41 22.07L1.41 21.04L13.58 21.04L13.58 22.07ZM13.58 19.92L1.41 19.92L1.41 18.89L13.58 18.89L13.58 19.92ZM13.58 17.76L1.41 17.76L1.41 16.73L13.58 16.73L13.58 17.76ZM13.58 15.6L1.41 15.6L1.41 14.58L13.58 14.58L13.58 15.6Z" fill="#6C6C6C" fill-opacity="1.000000" fill-rule="nonzero"/>
	<path id="Vysielačky.com" d="M161.77 29.17C161.43 31.5 159.52 33.27 156.62 33.27C152.94 33.27 150.69 30.44 150.69 26.52C150.69 22.53 153.04 19.74 156.59 19.74C159.35 19.74 161.43 21.37 161.77 23.83L159.76 23.83C159.45 22.63 158.39 21.54 156.62 21.54C154.27 21.54 152.7 23.49 152.7 26.45C152.7 29.49 154.24 31.46 156.62 31.46C158.19 31.46 159.38 30.61 159.76 29.17L161.77 29.17ZM175.95 26.52C175.95 30.58 173.56 33.27 170.02 33.27C166.47 33.27 164.08 30.58 164.08 26.52C164.08 22.42 166.47 19.74 170.02 19.74C173.56 19.74 175.95 22.42 175.95 26.52ZM181.03 33L179.02 33L179.02 19.91L180.96 19.91L180.96 21.95L181.13 21.95C181.68 20.55 182.94 19.74 184.64 19.74C186.36 19.74 187.51 20.55 188.15 21.95L188.29 21.95C188.97 20.6 190.34 19.74 192.21 19.74C194.54 19.74 196.2 21.16 196.2 24.24L196.2 33L194.19 33L194.19 24.24C194.19 22.3 192.96 21.54 191.53 21.54C189.69 21.54 188.63 22.78 188.63 24.47L188.63 33L186.59 33L186.59 24.03C186.59 22.54 185.52 21.54 184 21.54C182.43 21.54 181.03 22.89 181.03 24.82L181.03 33ZM166.1 26.52C166.1 29.15 167.32 31.46 170.02 31.46C172.71 31.46 173.94 29.15 173.94 26.52C173.94 23.9 172.71 21.54 170.02 21.54C167.32 21.54 166.1 23.9 166.1 26.52ZM147.69 31.59C147.69 32.44 147 33.13 146.15 33.13C145.31 33.13 144.62 32.44 144.62 31.59C144.62 30.75 145.31 30.07 146.15 30.07C147 30.07 147.69 30.75 147.69 31.59Z" fill="#6C6C6C" fill-opacity="1.000000" fill-rule="evenodd"/>
	<path id="Vysielačky.com" d="M106.44 14.66L108.35 14.66L110.12 17.04L111.89 14.66L113.8 14.66L113.8 14.79L111.04 18.33L109.2 18.33L106.44 14.79L106.44 14.66ZM68.43 16.36C68.43 17.11 67.78 17.72 67 17.72C66.21 17.72 65.56 17.11 65.56 16.36C65.56 15.61 66.21 15 67 15C67.78 15 68.43 15.61 68.43 16.36ZM22.61 15.54L24.83 15.54L30 30.24L30.21 30.24L35.4 15.54L37.61 15.54L31.2 33L29.02 33L22.61 15.54ZM85.64 15.54L87.65 15.54L87.65 33L85.64 33L85.64 15.54ZM120.28 33L118.27 33L118.27 15.54L120.28 15.54L120.28 25.74L120.52 25.74L126.25 19.91L128.73 19.91L123.2 25.5L129.14 33L126.59 33L121.68 26.79L120.28 28.1L120.28 33ZM58.06 19.74C60.66 19.74 62.07 20.98 62.7 22.83L60.89 23.34C60.54 22.44 59.82 21.47 58.06 21.47C56.46 21.47 55.27 22.29 55.27 23.41C55.27 24.42 55.97 24.94 57.52 25.33L59.46 25.8C61.8 26.37 62.94 27.52 62.94 29.34C62.94 31.61 60.87 33.27 57.83 33.27C55.15 33.27 53.31 32.08 52.85 29.86L54.76 29.38C55.11 30.79 56.14 31.5 57.79 31.5C59.67 31.5 60.86 30.58 60.86 29.45C60.86 28.55 60.23 27.91 58.92 27.61L56.74 27.09C54.33 26.53 53.26 25.33 53.26 23.52C53.26 21.3 55.3 19.74 58.06 19.74ZM82.37 29.96C81.75 31.94 79.81 33.27 77.15 33.27C73.37 33.27 71.05 30.58 71.05 26.55C71.05 22.53 73.4 19.74 76.95 19.74C79.67 19.74 82.57 21.41 82.57 26.28L82.57 27.13L73.07 27.13C73.16 29.94 74.79 31.46 77.15 31.46C78.73 31.46 79.91 30.78 80.42 29.41L82.37 29.96ZM99.08 31.22C98.66 32.08 97.47 33.3 95.19 33.3C92.7 33.3 90.72 31.83 90.72 29.28C90.72 26.28 93.37 25.74 95.8 25.42C98.19 25.12 99.17 25.21 99.17 24.24L99.17 24.16C99.17 22.49 98.27 21.5 96.41 21.5C94.5 21.5 93.45 22.53 93 23.49L91.09 22.8C92.12 20.41 94.37 19.74 96.34 19.74C98.02 19.74 101.19 20.21 101.19 24.37L101.19 33L99.17 33L99.17 31.22L99.08 31.22ZM115.33 29.17C114.99 31.5 113.08 33.27 110.19 33.27C106.5 33.27 104.25 30.44 104.25 26.52C104.25 22.53 106.61 19.74 110.15 19.74C112.91 19.74 114.99 21.37 115.33 23.83L113.32 23.83C113.02 22.63 111.96 21.54 110.19 21.54C107.83 21.54 106.27 23.49 106.27 26.45C106.27 29.49 107.8 31.46 110.19 31.46C111.75 31.46 112.95 30.61 113.32 29.17L115.33 29.17ZM45.21 34.91C44.45 36.94 43.17 37.91 41.36 37.91C40.68 37.91 40.1 37.77 39.89 37.66L40.4 35.9C41.87 36.27 42.78 36.08 43.51 34.08L43.88 33.07L39.04 19.91L41.22 19.91L44.84 30.33L44.97 30.33L48.59 19.91L50.77 19.91L45.21 34.91ZM67.98 33L65.97 33L65.97 19.91L67.98 19.91L67.98 33ZM136.47 34.91C135.71 36.94 134.44 37.91 132.62 37.91C131.94 37.91 131.36 37.77 131.15 37.66L131.66 35.9C133.13 36.27 134.04 36.08 134.77 34.08L135.14 33.07L130.3 19.91L132.48 19.91L136.1 30.33L136.23 30.33L139.85 19.91L142.03 19.91L136.47 34.91ZM76.95 21.54C74.65 21.54 73.21 23.36 73.07 25.4L80.53 25.4C80.53 23.17 79.13 21.54 76.95 21.54ZM92.74 29.38C92.74 30.78 93.9 31.5 95.5 31.5C97.88 31.5 99.17 29.9 99.17 28.25L99.17 26.41C98.83 26.83 96.55 27.07 95.7 27.16C94.13 27.37 92.74 27.84 92.74 29.38Z" fill="#D07600" fill-opacity="1.000000" fill-rule="evenodd"/>
</svg>
