<?xml version="1.0" encoding="utf-8"?>
<!-- Generator: Adobe Illustrator 17.0.0, SVG Export Plug-In . SVG Version: 6.00 Build 0)  -->
<!DOCTYPE svg PUBLIC "-//W3C//DTD SVG 1.1//EN" "http://www.w3.org/Graphics/SVG/1.1/DTD/svg11.dtd">
<svg version="1.1" id="Layer_1" xmlns="http://www.w3.org/2000/svg" xmlns:xlink="http://www.w3.org/1999/xlink" x="0px" y="0px"
	 width="170px" height="157.75px" viewBox="0 0 170 157.75" enable-background="new 0 0 170 157.75" xml:space="preserve">
<path fill="#FFFFFF" d="M67.235,36.694c0,0-1.828-2.162-2.271-3.159c-0.379-0.852-0.603-3.074-0.125-3.875
	c1.116-1.872,7.031-4.5,7.031-4.5l15.719,1.219l16.563-8.031l5.456,11.443l0.405,1.476l-3.548,19.452l-11.25,11.254l-15.892,5.563
	l-5.545-8.813l-6.688-6.875l-4.688-3.875V43.91l4.625-4.188l0.875-2.438L67.235,36.694z"/>
<path fill="#1C222D" d="M38.419,90.564l-6.075,42.347l-9.758,0.675l-2.946-28.108h-0.368l-3.007,28.66l-9.391,0.86L0,87.372
	l7.364,0.798l3.928,35.166h0.369l3.621-34.429l8.469,0.675l3.498,33.754h0.369l3.743-33.202L38.419,90.564 M53.21,91.3l5.155,40.321
	l-6.996,0.246l-0.982-9.574l-5.462,0.184l-0.982,9.758l-7.119,0.368l5.401-41.794L53.21,91.3z M49.773,116.156L47.871,97.07h-0.369
	l-1.964,19.21L49.773,116.156z M79.538,102.163v5.585c0,4.296-1.472,7.61-5.032,9.267l4.91,14.176l-7.426,0.123l-3.621-13.134
	h-1.841v13.195l-6.751,0.184V91.546l8.592,0.184C76.408,91.73,79.538,95.903,79.538,102.163z M68.368,112.044
	c2.578,0,4.296-1.227,4.296-4.296v-5.585c0-2.946-1.718-3.928-4.296-4.173c-0.613-0.062-1.35-0.123-1.841-0.123v14.176
	L68.368,112.044L68.368,112.044z M97.213,91.853l5.032,39.523l-7.058-0.123l-0.859-8.899l-5.401-0.122l-0.921,8.959H80.95
	l5.094-39.277L97.213,91.853z M93.715,116.156L91.812,97.07h-0.369l-1.902,19.026L93.715,116.156z M123.603,100.874v5.094h-6.874
	v-5.094c0-2.639-1.227-3.683-3.069-3.683c-2.209,0-3.069,1.474-3.069,3.683v21.48c0,2.639,1.228,3.682,3.682,3.682
	c0.982,0,1.719-0.184,2.455-0.491v-8.776h-3.192v-6.137h10.066v18.473c-1.78,1.534-5.401,3.069-9.942,3.069
	c-5.462,0-9.942-3.069-9.942-9.82v-21.48c0-6.751,4.48-9.819,9.942-9.819C120.473,91.055,123.603,95.473,123.603,100.874z
	 M146.556,99.892v23.321c0,6.751-4.48,9.82-10.249,9.82c-7.12,0-10.249-4.419-10.249-9.82V99.892c0-6.751,4.48-9.819,10.249-9.819
	C143.426,90.073,146.556,94.492,146.556,99.892z M139.683,99.892c0-2.638-1.534-3.682-3.375-3.682c-2.21,0-3.376,1.473-3.376,3.682
	v23.321c0,2.639,1.534,3.682,3.376,3.682c2.209,0,3.375-1.473,3.375-3.682V99.892z M170,99.095v24.917
	c0,7.488-4.357,11.293-11.17,10.618l-9.819-0.859V89.336l9.819-0.859C166.871,87.741,170,92.835,170,99.095z M163.127,98.911
	c0-3.069-1.719-4.296-4.296-4.296c-0.675,0-2.27,0.123-3.069,0.307v33.018c0.798,0.183,2.393,0.368,3.069,0.368
	c3.069,0,4.296-1.718,4.296-4.296V98.911z"/>
<path fill="#1C222D" d="M63.477,76.952c-3.106-1.62-5.36-3.605-6.764-5.954c-1.405-2.349-2.106-4.604-2.106-6.763
	c0-2.375,0.579-4.441,1.741-6.197c1.161-1.754,2.903-2.632,5.225-2.632c1.889,0,3.415,0.392,4.577,1.175
	c1.161,0.784,2.254,1.77,3.281,2.956c0.539,0.648,0.918,0.972,1.134,0.972c0.27,0,0.405-0.188,0.405-0.567
	c0-0.701-0.433-1.54-1.296-2.511c-0.864-0.972-2.025-1.822-3.483-2.551s-2.997-1.094-4.618-1.094c-1.081,0-1.836-0.242-2.268-0.729
	c-0.433-0.486-0.648-1.025-0.648-1.62c0-0.755,0.296-1.404,0.891-1.944c0.593-0.539,1.511-0.782,2.754-0.73
	c2.322,0.055,4.306,0.474,5.954,1.256c1.646,0.784,2.969,1.701,3.969,2.754c0.998,1.053,2.118,2.444,3.361,4.171
	c1.512,2.106,2.848,3.645,4.01,4.618c1.161,0.971,2.714,1.458,4.658,1.458c1.458,0,2.902-0.364,4.334-1.093
	c1.43-0.729,2.726-1.58,3.888-2.552c1.16-0.972,2.497-2.187,4.009-3.645c1.187-1.187,2.133-2.065,2.836-2.633
	c0.701-0.567,1.295-0.85,1.781-0.85c0.594,0,1.066,0.23,1.418,0.689c0.351,0.46,0.527,1.148,0.527,2.066
	c0,3.24-1.229,6.777-3.685,10.611c-2.458,3.834-5.806,7.088-10.044,9.761c-4.24,2.673-8.898,4.01-13.973,4.01
	C70.538,79.382,66.582,78.572,63.477,76.952"/>
<path fill="#1C222D" d="M62.141,49.695c-0.919-0.675-1.377-1.633-1.377-2.876c0-1.079,0.351-2.066,1.054-2.957
	c0.701-0.891,1.701-1.93,2.997-3.119c0.593-0.539,1.106-1.052,1.539-1.539c0.432-0.486,0.648-0.863,0.648-1.134
	c0-0.27-0.121-0.527-0.365-0.77c-0.242-0.243-0.5-0.446-0.77-0.607c-0.595-0.377-1.04-0.756-1.336-1.134
	c-0.297-0.377-0.446-0.891-0.446-1.54c0-0.593,0.487-0.958,1.458-1.093c0.972-0.134,1.903,0.135,2.795,0.81
	c0.891,0.676,1.336,1.715,1.336,3.118c0,0.81-0.284,1.58-0.85,2.309c-0.567,0.729-1.418,1.607-2.552,2.633s-1.985,1.891-2.552,2.591
	c-0.567,0.703-0.85,1.458-0.85,2.268c0,0.756,0.269,1.336,0.81,1.741c0.539,0.405,1.187,0.608,1.944,0.608
	c0.648,0,1.175-0.162,1.58-0.487c0.405-0.324,0.634-0.701,0.689-1.134c0.053-0.377,0.175-0.661,0.364-0.85
	c0.189-0.189,0.418-0.284,0.689-0.284c0.269,0,0.513,0.121,0.729,0.365c0.215,0.243,0.324,0.554,0.324,0.931
	c0,0.757-0.352,1.472-1.053,2.147c-0.702,0.676-1.756,1.012-3.159,1.012C64.274,50.707,63.059,50.371,62.141,49.695"/>
<path fill="#1C222D" d="M106.813,50.707c-0.242-0.053-0.419-0.215-0.527-0.486c-1.134-4.374-3.416-8.262-6.844-11.664
	c-3.43-3.402-7.385-6.034-11.867-7.898c-4.483-1.863-8.857-2.794-13.123-2.794c-2.971,0-6.13,0.783-9.477,2.349l-0.567,0.243
	c-0.162,0-0.283-0.067-0.364-0.202c-0.081-0.134-0.095-0.256-0.04-0.365c3.024-6.047,7.398-11.272,13.123-15.673
	c5.723-4.401,12.879-6.088,21.465-5.063c1.889,1.243,3.752,3.065,5.589,5.467c1.835,2.403,3.402,4.955,4.698,7.655
	c-1.296-0.539-2.985-0.782-5.063-0.729c-2.08,0.054-3.888,0.54-5.427,1.458c-1.539,0.919-2.309,2.322-2.309,4.212
	c0,1.836,0.756,3.361,2.269,4.577c1.51,1.215,3.159,1.85,4.941,1.903c1.296,0.054,2.524-0.134,3.685-0.567
	c1.161-0.432,2.174-1.053,3.038-1.863c0.594,2.754,0.648,5.698,0.162,8.829c-0.486,3.132-1.432,6.534-2.836,10.206
	C107.232,50.626,107.057,50.761,106.813,50.707"/>
<path fill="#1C222D" d="M75.223,40.986c-0.514-0.486-0.824-1.079-0.932-1.782c-0.055-0.701,0.134-1.295,0.567-1.782
	c0.432-0.486,0.999-0.729,1.701-0.729c0.701,0,1.308,0.243,1.822,0.729c0.512,0.487,0.822,1.081,0.932,1.782
	c0.053,0.703-0.135,1.296-0.567,1.782c-0.433,0.487-1,0.73-1.701,0.73C76.343,41.716,75.736,41.473,75.223,40.986"/>
<path fill="#1C222D" d="M77.896,7.047c0.836-1.997,1.835-3.672,2.997-5.022C82.053,0.676,83.04,0,83.849,0
	c0.81,0,1.215,0.433,1.215,1.296c0,0.271-0.081,0.703-0.243,1.296c-0.27,1.134-0.392,2.187-0.364,3.159
	c0.026,0.971,0.418,2.053,1.175,3.24c-3.888,1.134-6.885,2.403-8.991,3.807C76.64,10.963,77.058,9.046,77.896,7.047"/>
<path fill="#1C222D" d="M99.361,30.74c-1.215-1.054-1.822-2.281-1.822-3.686c0-2.321,0.904-3.955,2.713-4.9
	c1.809-0.944,3.793-1.418,5.954-1.418c2.268,0,4.158-0.446,5.67-1.336c1.512-0.891,3.078-2.119,4.698-3.686
	c0.81-0.81,1.499-1.418,2.066-1.823c0.567-0.404,1.12-0.607,1.66-0.607c0.432,0,0.851,0.176,1.255,0.526
	c0.405,0.352,0.608,0.797,0.608,1.336c0,1.296-0.838,3.362-2.511,6.197c-1.674,2.835-3.888,5.374-6.642,7.614
	c-2.754,2.242-5.751,3.362-8.991,3.362C102.128,32.32,100.576,31.793,99.361,30.74"/>
<path fill="#1C222D" d="M110.134,58.078c-0.352-0.377-0.797-0.567-1.336-0.567c-0.541,0-0.986,0.19-1.336,0.567
	c-0.352,0.378-0.526,0.81-0.526,1.296c0,0.54,0.175,0.999,0.526,1.377c0.35,0.379,0.795,0.567,1.336,0.567
	c0.539,0,0.985-0.188,1.336-0.567c0.351-0.377,0.527-0.836,0.527-1.377C110.661,58.888,110.485,58.457,110.134,58.078
	 M109.932,60.589c-0.324,0.324-0.703,0.487-1.134,0.487c-0.433,0-0.81-0.162-1.134-0.487c-0.325-0.324-0.486-0.729-0.486-1.215
	c0-0.432,0.162-0.81,0.486-1.134c0.324-0.324,0.701-0.486,1.134-0.486c0.432,0,0.81,0.162,1.134,0.486
	c0.324,0.324,0.486,0.703,0.486,1.134C110.418,59.86,110.256,60.265,109.932,60.589z"/>
<path fill="#1C222D" d="M109.284,60.427h0.324l-0.577-0.77c0.074-0.027,0.145-0.067,0.213-0.121c0.134-0.107,0.203-0.27,0.203-0.486
	c0-0.215-0.069-0.377-0.203-0.486c-0.136-0.107-0.284-0.162-0.446-0.162h-0.567v2.025h0.243v-0.729h0.263L109.284,60.427
	 M108.474,59.456v-0.811h0.324c0.269,0,0.405,0.136,0.405,0.405c0,0.271-0.136,0.405-0.405,0.405h-0.324V59.456z"/>
<path fill="#1C222D" d="M84.174,43.174c-0.109-0.215-0.217-0.458-0.324-0.729c-0.595-1.458-1.405-2.673-2.43-3.645
	c-1.027-0.972-2.782-1.458-5.265-1.458c-1.189,0-2.404,0.54-3.646,1.62c-0.432,0.432-0.756,0.648-0.971,0.648
	c-0.162,0-0.244-0.107-0.244-0.324c0-1.134,0.527-2.254,1.58-3.361c1.053-1.106,2.524-1.66,4.415-1.66
	c2.159,0,3.996,0.824,5.508,2.471c1.511,1.648,2.267,3.47,2.267,5.467c0,0.864-0.19,1.296-0.567,1.296
	C84.388,43.498,84.281,43.39,84.174,43.174"/>
<g>
	<g>
		<path fill="#1C222D" d="M105.65,152.311l1.371,1.474l-0.556,0.504l-1.306-1.422c-0.854,0.944-1.617,1.422-2.704,1.422
			c-1.345,0-2.406-0.944-2.406-2.25c0-1.216,0.932-2.018,1.876-2.704c-0.634-0.685-1.113-1.332-1.113-2.095
			c0-1.009,0.789-1.747,1.89-1.747c1.112,0,1.901,0.738,1.901,1.773c0,0.892-0.75,1.552-1.591,2.185l0.129,0.13l2.018,2.186
			l1.281-1.501l0.582,0.492L105.65,152.311 M104.68,152.323l-2.108-2.302l-0.13-0.142c-0.853,0.634-1.617,1.267-1.617,2.134
			c0,0.919,0.738,1.578,1.695,1.578C103.296,153.591,103.891,153.229,104.68,152.323z M102.507,148.909
			c0.724-0.53,1.319-1.022,1.319-1.642c0-0.634-0.466-1.074-1.125-1.074c-0.648,0-1.113,0.439-1.113,1.048
			C101.589,147.783,101.964,148.3,102.507,148.909z"/>
		<polyline fill="#1C222D" points="120.667,145.3 120.667,154.16 119.891,154.16 119.891,147.783 116.528,153.126 113.165,147.757 
			113.165,154.16 112.388,154.16 112.388,145.3 116.528,151.767 120.667,145.3 		"/>
		<path fill="#1C222D" d="M122.774,151.379c0-1.708,1.216-2.91,2.937-2.91c1.733,0,2.949,1.202,2.949,2.91
			c0,1.707-1.216,2.91-2.949,2.91C123.99,154.289,122.774,153.087,122.774,151.379 M127.845,151.379c0-1.294-0.88-2.212-2.134-2.212
			c-1.255,0-2.135,0.919-2.135,2.212s0.88,2.212,2.135,2.212C126.965,153.591,127.845,152.673,127.845,151.379z"/>
		<path fill="#1C222D" d="M134.066,148.728l-0.298,0.776c-1.165-0.53-2.497-0.078-2.497,1.242v3.415h-0.776v-5.562h0.776v0.75
			C131.88,148.521,133.044,148.236,134.066,148.728"/>
		<path fill="#1C222D" d="M140.313,151.703l-4.864-0.013c0.103,1.19,0.97,1.902,2.161,1.902c0.801,0,1.384-0.336,1.862-1.009
			l0.608,0.415c-0.556,0.84-1.41,1.292-2.47,1.292c-1.785,0-2.949-1.163-2.949-2.845c0-1.617,1.06-2.975,2.898-2.975
			C139.265,148.469,140.417,149.852,140.313,151.703 M135.462,151.03h4.088c-0.155-1.06-0.893-1.862-1.992-1.862
			C136.381,149.167,135.618,149.943,135.462,151.03z"/>
	</g>
	<path fill="#1C222D" d="M35.683,152.117h-4.269l-0.88,2.043h-0.853l3.88-8.86l3.88,8.86h-0.879L35.683,152.117 M35.372,151.392
		l-1.824-4.255l-1.823,4.255H35.372z"/>
	<path fill="#1C222D" d="M42.499,148.728l-0.298,0.776c-1.165-0.53-2.497-0.078-2.497,1.242v3.415h-0.777v-5.562h0.777v0.75
		C40.312,148.521,41.476,148.236,42.499,148.728"/>
	<path fill="#1C222D" d="M51.565,150.564v3.596h-0.776v-3.505c0-0.919-0.504-1.488-1.332-1.488c-0.867,0-1.449,0.595-1.449,1.488
		v3.505h-0.776v-3.492c0-0.931-0.491-1.501-1.332-1.501c-0.867,0-1.449,0.595-1.449,1.501v3.492h-0.776v-5.562h0.776v0.75
		c0.336-0.555,0.905-0.879,1.656-0.879c0.776,0,1.359,0.362,1.669,0.982c0.336-0.62,0.97-0.982,1.798-0.982
		C50.802,148.469,51.565,149.284,51.565,150.564"/>
	<polyline fill="#1C222D" points="58.252,148.598 54.165,157.782 53.324,157.782 55.07,153.746 52.819,148.598 53.673,148.598 
		55.497,152.944 57.411,148.598 58.252,148.598 	"/>
	<path fill="#1C222D" d="M67.302,150.564v3.596h-0.776v-3.505c0-0.919-0.504-1.488-1.332-1.488c-0.867,0-1.449,0.595-1.449,1.488
		v3.505h-0.776v-3.492c0-0.931-0.491-1.501-1.332-1.501c-0.867,0-1.449,0.595-1.449,1.501v3.492h-0.776v-5.562h0.776v0.75
		c0.336-0.555,0.905-0.879,1.656-0.879c0.776,0,1.359,0.362,1.669,0.982c0.336-0.62,0.97-0.982,1.798-0.982
		C66.539,148.469,67.302,149.284,67.302,150.564"/>
	<g>
		<path fill="#1C222D" d="M71.296,148.585c1.099,0,1.849,0.59,2.159,1.279v-1.199h0.7v5.457h-0.7v-1.209
			c-0.32,0.699-1.08,1.289-2.169,1.289c-1.489,0-2.599-1.109-2.599-2.818S69.797,148.585,71.296,148.585z M71.426,149.194
			c-1.149,0-2.029,0.8-2.029,2.189c0,1.379,0.879,2.209,2.029,2.209c1.119,0,2.029-0.84,2.029-2.199S72.545,149.194,71.426,149.194z
			"/>
	</g>
	<path fill="#1C222D" d="M79.415,148.895l-0.298,0.776c-1.165-0.53-2.497-0.078-2.497,1.242v3.415h-0.777v-5.562h0.777v0.75
		C77.228,148.688,78.392,148.403,79.415,148.895"/>
	<g>
		<path fill="#1C222D" d="M80.153,146l0.699-0.211v5.377l2.199-2.438h0.979l-2.588,2.719l2.608,2.738h-0.949l-2.249-2.448v2.448
			h-0.699V146z"/>
		<path fill="#1C222D" d="M87.311,154.265c-1.549,0-2.679-1.079-2.679-2.809c0-1.739,1.11-2.809,2.679-2.809
			c1.599,0,2.579,1.14,2.579,2.528c0,0.221,0,0.36-0.02,0.55h-4.528c0.06,1.279,0.949,1.949,1.969,1.949
			c0.93,0,1.559-0.489,1.759-1.22h0.739C89.561,153.486,88.681,154.265,87.311,154.265z M85.343,151.156h3.838
			c0.029-1.27-0.89-1.909-1.899-1.909C86.292,149.247,85.423,149.887,85.343,151.156z"/>
	</g>
	<path fill="#1C222D" d="M94.916,153.874c-0.439,0.207-0.919,0.297-1.384,0.297c-1.074,0-1.63-0.53-1.63-1.578v-3.415H90.48v-0.699
		h1.423v-2.82l0.776-0.259v3.078h2.07v0.699h-2.07v3.325c0,0.699,0.349,0.983,0.97,0.983c0.297,0,0.686-0.052,1.074-0.233
		L94.916,153.874"/>
</g>
</svg>
